<?xml version="1.0" standalone="no"?>
<!DOCTYPE svg PUBLIC "-//W3C//DTD SVG 20010904//EN"
 "http://www.w3.org/TR/2001/REC-SVG-20010904/DTD/svg10.dtd">
<svg version="1.0" xmlns="http://www.w3.org/2000/svg"
 width="1920.000000pt" height="1080.000000pt" viewBox="0 0 1920.000000 1080.000000"
 preserveAspectRatio="xMidYMid meet">

<g transform="translate(0.000000,1080.000000) scale(0.100000,-0.100000)"
fill="#928B81" stroke="white" stroke-width="1">
<path d="M8056 9049 c-32 -25 -48 -53 -56 -99 -5 -30 -9 -35 -30 -32 -62 7
-179 4 -217 -7 -47 -13 -85 -41 -89 -64 -2 -15 6 -16 64 -11 65 6 70 5 160
-41 50 -25 92 -49 92 -53 0 -4 -24 -19 -53 -35 -153 -81 -229 -211 -247 -426
-11 -124 -5 -191 24 -266 8 -22 15 -52 16 -67 0 -15 11 -57 25 -94 23 -61 24
-68 10 -95 -21 -40 -11 -120 23 -184 20 -38 43 -61 92 -93 90 -58 88 -56 106
-120 54 -185 195 -359 377 -462 39 -22 57 -38 57 -51 0 -47 166 -80 218 -43
13 9 21 22 18 29 -3 10 31 35 48 35 12 0 -94 -284 -112 -302 -5 -5 -48 33 -98
83 -49 50 -104 106 -121 124 -18 18 -33 38 -33 43 0 6 -4 12 -9 14 -4 2 -31
31 -60 66 -87 105 -89 75 -5 -65 55 -90 78 -117 196 -235 98 -98 127 -112 163
-78 29 27 48 86 79 239 22 110 24 116 57 137 40 25 168 159 209 219 53 77 124
223 134 277 2 7 11 40 22 73 15 47 19 86 18 182 l-2 122 27 4 c25 4 25 5 4 12
-19 6 -20 10 -11 37 11 30 11 30 22 9 12 -21 12 -21 34 8 12 17 22 34 22 38 0
19 33 92 41 88 17 -11 31 112 27 224 -3 63 -2 107 3 100 11 -18 1 51 -18 121
-8 30 -35 97 -60 149 -55 112 -145 208 -293 313 -105 74 -270 146 -355 155
-84 9 -242 -13 -332 -47 l-82 -30 -27 25 c-21 20 -25 31 -21 54 4 21 2 31 -9
35 -21 8 -18 9 -48 -15z m131 -115 c-16 -9 -31 -13 -34 -10 -3 3 5 10 18 15
37 15 47 12 16 -5z m-202 -234 c-3 -5 -16 -15 -28 -21 -22 -12 -22 -12 -3 10
19 21 43 30 31 11z m335 -609 c0 -4 39 -49 88 -99 103 -107 154 -135 300 -161
53 -10 108 -23 122 -29 14 -6 33 -13 43 -16 17 -5 16 -8 -5 -36 -35 -47 -14
-55 73 -27 41 13 73 29 72 34 -4 17 58 22 64 6 3 -8 3 -64 1 -126 -5 -93 -11
-130 -41 -218 -60 -181 -112 -266 -243 -401 -75 -77 -99 -90 -197 -107 -60
-10 -71 -10 -104 7 -21 11 -49 23 -63 27 -38 11 -191 113 -224 149 -71 78
-193 286 -181 307 4 5 -7 25 -24 44 -51 59 -50 76 9 142 28 32 63 77 78 100
26 41 42 54 42 33 0 -23 44 -7 76 28 40 42 100 160 108 212 4 19 3 59 -2 88
-5 28 -5 52 -1 52 5 0 9 -4 9 -9z m-526 -266 c16 -24 16 -48 0 -32 -12 11 -54
138 -53 160 0 12 8 -6 18 -40 10 -34 26 -74 35 -88z"/>
<path d="M8445 7723 c-31 -6 -72 -40 -60 -51 13 -12 205 -24 205 -13 0 31 -96
73 -145 64z"/>
<path d="M8782 7703 c-27 -50 -35 -154 -20 -251 l14 -92 -25 -35 c-43 -61 13
-76 73 -20 24 22 27 31 21 58 -18 88 -35 208 -36 262 0 33 -4 69 -8 80 -8 19
-8 19 -19 -2z"/>
<path d="M8928 7643 c-23 -6 -33 -46 -21 -86 6 -24 15 -33 35 -35 43 -5 59 46
33 111 -7 17 -15 19 -47 10z"/>
<path d="M8448 7589 c-26 -15 -25 -110 1 -126 47 -30 92 40 66 103 -14 35 -35
42 -67 23z"/>
<path d="M8755 7204 c-49 -8 -135 -15 -189 -16 -82 -1 -103 -5 -118 -20 -23
-23 -11 -52 33 -76 16 -10 29 -20 29 -24 0 -4 17 -15 37 -25 51 -24 135 -21
196 5 63 28 145 110 145 145 0 31 1 31 -133 11z m30 -61 c-36 -28 -105 -54
-143 -55 -20 0 -55 8 -77 18 l-40 18 50 3 c65 3 186 23 205 33 23 13 27 0 5
-17z"/>
<path d="M12365 7702 c-68 -8 -154 -36 -214 -69 -64 -37 -149 -108 -139 -119
3 -3 31 11 63 31 69 44 200 98 315 130 47 13 81 25 75 26 -20 4 -71 5 -100 1z"/>
<path d="M9150 7694 c0 -18 77 -107 144 -167 64 -58 82 -81 120 -160 26 -52
46 -99 46 -105 0 -7 5 -12 11 -12 8 0 10 19 5 66 -7 71 -27 131 -60 180 -26
39 -135 134 -153 134 -7 0 -13 4 -13 10 0 5 -18 21 -40 35 -39 24 -60 31 -60
19z"/>
<path d="M12663 7693 c4 -3 81 -29 172 -58 194 -61 296 -119 489 -279 82 -68
37 -4 -72 102 -133 130 -248 201 -352 218 -14 2 -45 8 -70 13 -51 11 -177 14
-167 4z"/>
<path d="M7637 7674 c-56 -15 -140 -73 -257 -179 -47 -43 -105 -94 -130 -114
-25 -20 -47 -38 -50 -41 -3 -3 -23 -18 -45 -35 -98 -72 -156 -145 -194 -244
-23 -58 -16 -66 19 -19 83 112 199 224 257 248 7 3 63 53 125 111 142 134 243
219 260 219 21 1 98 38 98 48 0 16 -33 18 -83 6z"/>
<path d="M12830 7586 c0 -7 33 -39 74 -70 133 -99 330 -404 358 -551 6 -35 18
-66 29 -75 19 -16 38 -114 39 -198 0 -26 4 -41 10 -37 6 4 10 -12 10 -41 0
-46 0 -46 29 -41 25 5 30 3 33 -16 3 -21 4 -21 22 6 21 31 24 75 11 197 -8 79
-7 84 8 71 10 -7 18 -25 18 -40 2 -24 2 -24 6 -3 2 12 -4 51 -15 85 -11 34
-23 96 -26 137 -6 83 -29 151 -78 232 -67 110 -109 158 -183 203 -103 64 -133
60 -45 -7 34 -25 46 -42 50 -69 4 -19 10 -40 14 -47 4 -7 5 -12 3 -12 -2 0
-23 27 -47 61 -23 33 -68 85 -99 115 -80 79 -221 142 -221 100z"/>
<path d="M7710 7550 c-11 -7 -12 -12 -4 -20 9 -9 17 -8 33 2 11 7 21 16 21 20
0 11 -32 10 -50 -2z"/>
<path d="M10100 7533 c-123 -22 -274 -85 -390 -163 -120 -81 -216 -176 -265
-264 -45 -81 -45 -81 -65 73 -15 115 -41 212 -79 294 -26 54 -29 58 -30 32 0
-40 10 -94 49 -260 37 -161 60 -278 60 -305 0 -15 -8 -51 -19 -81 -15 -46 -39
-157 -46 -219 -5 -48 -27 -170 -36 -196 -5 -17 -9 -36 -9 -43 0 -7 -25 -62
-55 -123 -58 -117 -65 -155 -46 -255 5 -24 5 -43 1 -43 -27 0 -69 -214 -49
-251 10 -19 13 -20 20 -7 16 28 39 142 39 193 0 49 0 49 16 26 21 -30 74 -194
66 -202 -10 -9 -147 -49 -168 -49 -9 0 -36 -11 -59 -25 -23 -13 -69 -28 -102
-34 -151 -24 -337 -134 -385 -228 -8 -15 -34 -64 -57 -107 -57 -106 -135 -345
-102 -310 10 10 64 104 131 229 83 156 101 183 140 219 37 33 128 86 149 86 5
0 13 -26 16 -57 4 -32 13 -98 21 -148 22 -143 20 -208 -11 -355 -15 -74 -29
-142 -30 -150 -1 -8 -5 -22 -8 -30 -25 -67 -36 -311 -16 -368 6 -17 9 -40 7
-51 -2 -15 -25 8 -92 92 -49 62 -124 150 -167 197 -42 47 -124 139 -180 205
-57 66 -120 138 -140 160 -21 22 -48 54 -60 70 -13 17 -26 32 -29 35 -22 19
-180 240 -180 252 0 4 15 8 34 8 30 0 34 -3 40 -32 4 -18 29 -63 57 -100 69
-95 94 -89 59 12 -5 14 -13 42 -19 63 -8 33 -7 37 10 37 11 0 42 -11 69 -25
57 -29 73 -31 90 -10 14 17 50 20 50 5 0 -5 -11 -12 -25 -16 -36 -9 -21 -24
24 -24 45 0 86 34 61 51 -8 5 -25 7 -37 4 -36 -8 -35 11 2 28 60 29 45 44 -32
36 -38 -5 -81 -8 -98 -8 -28 0 -29 1 -12 13 13 10 15 16 7 21 -10 6 -26 1
-102 -36 -13 -7 -18 -2 -23 21 -7 34 -8 34 -35 18 -15 -10 -22 -10 -32 0 -11
11 -9 16 7 28 11 8 28 13 38 10 15 -3 17 3 17 47 0 68 -12 87 -41 69 -26 -16
-29 -14 -18 17 7 17 15 22 29 18 11 -3 20 -4 20 -3 0 14 -43 229 -55 277 -22
86 -59 187 -90 250 -24 46 -28 49 -39 33 -10 -13 -15 -14 -21 -4 -4 7 -2 16 6
20 10 7 9 17 -6 52 -10 24 -25 50 -32 59 -7 8 -13 21 -13 27 0 7 -4 12 -9 12
-5 0 -7 -9 -4 -20 8 -28 -31 -27 -51 2 -15 21 -15 23 4 30 21 8 21 16 3 82 -4
16 -1 17 29 11 18 -4 36 -12 40 -18 5 -8 15 -7 33 1 15 7 31 10 36 6 5 -3 12
2 15 10 3 9 15 16 25 16 10 0 19 5 19 10 0 6 8 5 20 -2 17 -11 30 -8 85 20 49
24 65 37 63 50 -8 45 -190 11 -290 -55 -27 -17 -28 -17 -52 6 -21 20 -28 22
-41 11 -8 -7 -18 -10 -22 -7 -3 4 2 9 11 13 10 4 16 18 16 40 0 39 -8 42 -39
13 -24 -23 -28 -21 -46 13 -6 13 -18 22 -26 22 -11 -1 -14 6 -12 20 3 14 -8
35 -36 64 -22 24 -42 51 -45 59 -3 8 -15 17 -25 20 -11 3 -17 11 -14 18 7 20
-157 187 -178 182 -9 -3 -23 -1 -30 4 -12 8 -12 10 0 18 21 14 2 33 -26 27
-31 -8 -48 1 -33 19 15 18 -6 31 -25 15 -12 -10 -24 -7 -62 13 -68 35 -93 41
-93 24 0 -15 9 -24 145 -132 149 -118 256 -240 326 -372 18 -35 36 -63 39 -63
4 0 7 -6 7 -13 0 -6 38 -78 85 -158 67 -114 94 -173 127 -274 24 -72 46 -134
51 -140 11 -14 89 -210 106 -265 12 -43 44 -224 44 -255 0 -12 -20 -14 -117
-12 -278 5 -421 -40 -516 -160 -28 -37 -78 -94 -111 -127 -52 -53 -55 -58 -30
-52 36 9 142 77 175 112 28 30 86 57 189 89 41 13 116 39 165 58 50 19 107 38
127 41 35 6 38 5 44 -21 10 -40 62 -142 92 -182 14 -19 42 -58 61 -87 20 -29
52 -70 72 -91 20 -22 85 -97 144 -169 60 -71 143 -165 186 -209 43 -44 101
-109 130 -145 28 -36 54 -67 58 -70 5 -3 21 -25 36 -50 15 -25 70 -87 122
-138 85 -85 91 -93 61 -85 -101 25 -190 -13 -233 -102 -21 -42 -26 -66 -23
-104 3 -45 1 -48 -13 -35 -8 8 -19 14 -23 14 -7 0 -59 35 -91 61 -11 10 -51
34 -90 54 -38 21 -77 44 -86 51 -8 8 -18 14 -22 14 -9 0 -157 107 -217 158
-60 51 -94 85 -335 333 -179 185 -247 261 -349 398 -38 52 -72 89 -74 83 -2
-7 12 -46 31 -87 54 -113 143 -240 239 -341 l49 -51 -38 -25 c-83 -54 -123
-78 -194 -114 -66 -34 -71 -38 -49 -44 29 -7 90 4 136 26 18 9 60 45 94 80 35
36 64 64 66 62 2 -2 88 -87 191 -189 104 -102 220 -209 260 -238 l71 -51 -16
-41 -16 -42 -22 64 c-28 81 -30 53 -9 -116 23 -188 23 -195 -29 -243 l-43 -40
-107 5 c-129 7 -141 -8 -28 -33 155 -36 682 -19 829 27 30 10 37 7 90 -34 32
-25 96 -82 143 -127 112 -109 130 -121 230 -164 56 -24 107 -56 150 -92 36
-31 79 -62 96 -70 39 -16 83 -9 102 17 9 14 17 17 26 10 6 -5 32 -15 58 -21
40 -10 49 -9 73 6 15 10 37 19 50 20 75 8 145 82 145 154 0 16 3 30 8 30 4 0
29 -35 55 -79 26 -43 64 -97 84 -120 64 -75 159 -104 198 -61 10 11 28 20 40
20 39 0 85 12 80 21 -3 4 -28 5 -55 2 -46 -5 -50 -4 -50 15 0 22 -74 191 -88
202 -4 3 -18 28 -31 55 -36 75 -124 203 -185 270 l-55 60 47 7 c26 4 59 9 75
12 25 5 27 3 27 -24 0 -46 33 -57 110 -38 55 13 60 13 60 -2 0 -8 7 -26 16
-39 15 -21 22 -23 83 -19 91 7 213 56 272 110 45 42 88 98 75 98 -4 0 -44 -22
-90 -50 -132 -79 -288 -129 -307 -99 -5 8 -9 17 -9 20 0 12 169 109 189 109
23 0 40 8 118 58 54 33 91 74 74 80 -6 2 -39 -12 -73 -31 -115 -64 -426 -197
-460 -197 -15 0 -8 23 16 55 14 18 72 60 130 95 98 59 206 149 206 171 0 5 -2
9 -4 9 -3 0 -61 -34 -130 -76 -114 -68 -146 -80 -146 -54 0 4 15 13 33 19 17
6 86 42 152 80 66 38 143 77 170 87 30 11 43 20 33 22 -10 2 -18 10 -18 19 0
12 -7 14 -32 8 -18 -4 -42 -7 -53 -7 -57 0 -283 -99 -317 -139 -9 -11 -21 -20
-25 -21 -4 -1 -20 -10 -35 -21 -29 -21 -36 -45 -18 -63 14 -14 -10 -62 -33
-70 -11 -3 -38 -18 -60 -34 -59 -39 -115 -46 -147 -18 -18 15 -21 22 -11 26
21 7 51 40 51 57 0 21 -23 19 -53 -5 -32 -26 -44 -25 -53 3 -3 12 -13 30 -22
40 -17 19 -126 54 -212 68 -30 5 -80 15 -110 24 -102 28 -179 13 -87 -18 23
-7 78 -26 122 -41 44 -15 111 -36 148 -46 68 -18 117 -43 117 -59 0 -11 -235
-4 -296 9 -66 15 -131 39 -246 93 -86 41 -98 50 -122 93 -14 26 -25 48 -24 48
27 13 158 41 205 44 72 4 98 -3 321 -90 84 -33 158 -61 165 -62 30 -5 50 -26
56 -58 5 -32 8 -35 29 -27 29 11 30 60 1 100 l-20 29 25 0 c41 0 105 30 112
53 8 24 -26 57 -57 57 -27 0 -24 11 24 76 106 146 166 241 171 276 5 31 2 40
-20 57 -15 12 -36 21 -46 21 -33 0 -78 -33 -111 -80 -27 -40 -125 -209 -164
-282 -14 -27 -17 -28 -101 -28 -48 -1 -100 -7 -117 -14 -26 -11 -39 -9 -104
11 -41 13 -99 24 -130 25 l-56 1 38 13 c48 17 99 53 92 65 -10 15 -48 10 -88
-10 -20 -10 -37 -15 -37 -11 0 4 8 11 17 14 25 10 0 30 -26 21 -16 -5 -21 -13
-19 -33 2 -18 -2 -27 -12 -27 -8 0 -15 -9 -15 -20 0 -11 -7 -21 -15 -23 -11
-2 -16 8 -17 34 -2 45 -9 52 -33 36 -11 -7 -26 -12 -34 -12 -8 0 -20 -8 -25
-17 -6 -10 -11 -14 -11 -9 0 5 -7 3 -15 -4 -25 -21 -43 -4 -51 47 -3 26 -9 52
-12 58 -4 5 -5 22 -3 38 2 18 -3 29 -14 33 -12 5 -13 9 -5 14 16 10 3 73 -13
64 -8 -5 -8 -2 1 7 14 15 16 69 3 69 -6 0 -3 12 5 28 19 36 18 52 -3 52 -16 1
-16 2 2 15 23 18 33 100 34 267 1 113 -3 138 -24 138 -8 0 -14 32 -19 108 -7
118 -23 206 -54 295 l-19 58 40 19 c23 11 74 29 114 40 76 22 196 74 248 109
l31 20 36 -38 c40 -40 52 -96 30 -136 -55 -101 -73 -190 -49 -247 14 -34 14
-37 -1 -40 -12 -3 -6 -11 23 -31 45 -31 55 -33 55 -12 0 8 6 15 14 15 22 0 28
-16 11 -30 -13 -11 -11 -16 20 -37 37 -25 44 -43 22 -62 -8 -6 -19 -28 -26
-49 -11 -33 -11 -43 2 -68 16 -32 22 -36 137 -87 41 -19 120 -68 176 -109 56
-42 111 -79 123 -83 11 -3 21 -13 21 -21 0 -15 12 -19 23 -7 4 3 2 12 -5 20
-6 7 -9 16 -6 18 3 3 24 -13 47 -36 23 -23 44 -40 46 -37 13 13 -59 121 -125
189 -76 77 -140 124 -240 174 -30 15 -58 32 -61 37 -4 6 -4 30 -1 54 2 24 2
44 0 44 -3 0 -18 -18 -33 -40 -21 -30 -31 -38 -39 -30 -8 8 -6 15 8 26 18 12
19 18 8 47 -17 47 -15 56 10 49 37 -9 12 14 -77 73 -98 64 -97 61 -70 215 8
47 15 86 15 87 0 1 12 -3 28 -7 104 -33 113 -34 123 -19 5 8 9 41 9 74 1 33 3
87 6 120 4 43 2 56 -5 45 -8 -11 -11 8 -10 70 l0 85 23 -50 c13 -27 33 -59 45
-70 12 -11 32 -31 44 -45 129 -144 252 -210 396 -210 66 0 182 33 231 66 19
13 36 20 38 14 2 -5 -4 -44 -13 -87 -9 -43 -18 -87 -20 -98 -2 -11 -15 -31
-27 -45 -54 -56 -168 -216 -196 -274 -35 -71 -72 -207 -71 -258 l0 -33 16 35
c110 241 161 333 216 395 10 11 41 53 68 94 l50 74 -2 111 c-1 110 -1 110 27
134 16 13 43 35 59 49 17 15 40 27 53 28 20 1 23 -3 17 -25 -3 -14 -10 -47
-14 -75 -5 -27 -16 -67 -25 -89 -22 -52 -20 -63 5 -40 21 19 21 19 18 -1 -4
-18 1 -20 41 -17 110 8 209 51 286 124 110 104 162 227 170 398 3 63 12 138
21 165 12 40 14 78 8 195 -3 79 -8 147 -10 150 -1 3 -6 38 -9 78 -7 80 -13
109 -45 251 -63 274 -151 421 -322 538 -52 36 -166 90 -204 97 -13 3 -28 7
-33 10 -11 7 -241 15 -272 9z m-2720 -603 c0 -5 -2 -10 -4 -10 -3 0 -8 5 -11
10 -3 6 -1 10 4 10 6 0 11 -4 11 -10z m2946 -45 c95 -48 168 -106 239 -188 69
-80 83 -109 86 -175 1 -26 6 -65 11 -87 13 -53 12 -208 -2 -269 -6 -28 -24
-79 -40 -115 -15 -36 -37 -89 -48 -118 -17 -46 -110 -169 -119 -159 -4 4 -103
-38 -233 -97 -52 -23 -55 -24 -133 -35 -109 -16 -192 10 -336 107 -50 34 -97
61 -105 61 -14 0 -34 42 -60 131 -11 40 -11 50 2 75 9 18 18 75 22 159 14 241
83 406 232 555 69 70 123 103 252 156 105 44 145 43 232 -1z m314 -23 c0 -7
-63 -42 -75 -42 -14 0 -2 17 23 32 29 19 52 23 52 10z m-20 -73 c-12 -21 -40
-23 -47 -2 -4 10 6 14 50 22 4 0 3 -8 -3 -20z m-790 -12 c0 -2 -9 -12 -20 -22
-24 -21 -27 -14 -4 9 15 15 24 20 24 13z m905 -36 c-13 -11 -75 -31 -75 -24 0
3 8 12 18 19 19 15 72 20 57 5z m-37 -71 c-14 -23 -24 -25 -34 -9 -7 12 12 29
34 29 10 0 10 -4 0 -20z m-2788 -545 c0 -12 -28 -35 -44 -35 -11 0 -6 26 6 38
17 17 38 15 38 -3z m2580 -555 c0 -5 -5 -10 -11 -10 -5 0 -7 5 -4 10 3 6 8 10
11 10 2 0 4 -4 4 -10z m-2883 -256 c-3 -3 -12 -4 -19 -1 -8 3 -5 6 6 6 11 1
17 -2 13 -5z m1273 -689 c0 -2 -9 -9 -20 -15 -12 -6 -20 -7 -20 -1 0 5 8 12
18 14 9 3 18 5 20 6 1 0 2 -1 2 -4z m-5 -85 c-16 -11 -34 -20 -40 -20 -12 0
46 38 60 39 6 1 -3 -8 -20 -19z m0 -80 c-3 -5 -11 -10 -16 -10 -6 0 -7 5 -4
10 3 6 11 10 16 10 6 0 7 -4 4 -10z m1090 0 c4 -6 -25 -54 -63 -108 -38 -53
-77 -112 -88 -129 -10 -18 -24 -33 -32 -33 -8 0 -3 15 16 43 16 23 48 78 71
122 57 106 80 131 96 105z m-1111 -67 c3 -3 18 -1 32 6 15 6 28 10 31 8 2 -2
-10 -10 -27 -17 -24 -10 -29 -17 -24 -34 3 -11 10 -25 15 -30 5 -6 9 -18 9
-27 0 -28 25 -42 52 -29 21 10 21 10 6 -3 -21 -16 -23 -38 -6 -55 6 -6 9 -14
6 -17 -10 -10 -33 7 -75 56 l-43 50 1 82 c1 62 3 74 9 49 4 -18 10 -36 14 -39z
m76 -58 c-7 -9 -15 -13 -19 -10 -3 3 1 10 9 15 21 14 24 12 10 -5z m90 -136
c0 -19 4 -21 38 -14 42 8 41 6 -11 -29 -49 -34 -61 -33 -72 7 -9 27 -7 34 10
44 29 16 35 15 35 -8z m110 12 c0 -5 -7 -12 -16 -15 -14 -5 -15 -4 -4 9 14 17
20 19 20 6z m629 -84 c-18 -37 -25 -43 -45 -39 -32 6 -30 14 11 51 49 43 59
39 34 -12z m-79 13 c0 -3 -4 -11 -9 -19 -8 -12 -14 -12 -43 -1 -51 20 -51 25
2 25 28 0 50 -2 50 -5z m178 -19 c10 -6 3 -15 -23 -35 -44 -34 -56 -28 -24 13
27 33 29 34 47 22z m-1605 -95 c18 -13 48 -32 67 -43 67 -36 277 -180 408
-279 l42 -32 -84 5 c-47 3 -156 0 -243 -6 -249 -19 -343 -21 -312 -7 64 28 69
47 48 187 -11 68 -10 84 7 138 10 33 23 61 27 61 5 0 23 -11 40 -24z m604 18
c-3 -3 -12 -4 -19 -1 -8 3 -5 6 6 6 11 1 17 -2 13 -5z m69 -65 c36 -70 -63
-131 -128 -79 -33 25 -27 62 16 94 56 43 84 39 112 -15z m181 -13 c90 -80 230
-145 358 -165 33 -5 101 -7 150 -5 101 3 142 -6 198 -47 48 -35 117 -98 137
-126 49 -68 105 -139 114 -145 6 -4 7 -8 2 -8 -5 0 -4 -6 2 -13 16 -19 142
-273 142 -286 0 -48 -112 53 -156 141 -31 61 -183 285 -210 310 -11 9 -31 19
-45 23 -26 6 -27 6 -23 -37 2 -24 6 -81 8 -128 3 -47 11 -109 19 -138 14 -51
13 -53 -7 -67 -20 -15 -21 -13 -33 57 -12 75 -53 195 -79 236 -22 33 -38 28
-30 -10 4 -18 11 -88 16 -154 5 -67 12 -134 16 -148 6 -23 3 -26 -22 -26 -54
0 -71 9 -66 35 6 34 -25 164 -48 203 -13 21 -27 32 -38 30 -9 -2 -27 8 -39 22
-12 14 -25 22 -29 18 -8 -9 14 -121 46 -227 34 -113 21 -113 -104 2 -36 33
-75 54 -171 92 -38 16 -75 33 -81 39 -7 6 -61 57 -121 114 -59 56 -122 113
-140 125 -48 32 -48 44 0 52 132 22 225 140 193 243 -10 30 -3 28 41 -12z
m1023 4 c0 -11 -6 -20 -14 -20 -18 0 -29 16 -21 30 11 18 35 11 35 -10z"/>
<path d="M9940 6558 c-40 -11 -74 -38 -63 -49 5 -4 42 -9 83 -12 41 -2 85 -7
98 -12 30 -10 29 10 -4 40 -36 33 -72 44 -114 33z"/>
<path d="M10353 6490 c-18 -11 -33 -24 -33 -28 0 -9 200 -26 208 -17 9 8 -22
38 -55 52 -45 18 -82 16 -120 -7z"/>
<path d="M9855 6335 c-27 -26 -30 -41 -16 -78 14 -37 38 -41 67 -10 28 30 31
74 8 97 -21 22 -31 20 -59 -9z"/>
<path d="M10164 6305 c-17 -37 -27 -81 -31 -133 -5 -70 -8 -79 -36 -103 -17
-14 -26 -28 -21 -32 13 -8 85 9 93 22 4 6 13 68 20 138 7 70 15 136 17 146 3
9 0 17 -6 17 -6 0 -22 -25 -36 -55z"/>
<path d="M10394 6275 c-19 -46 -18 -68 5 -89 37 -33 81 6 81 72 0 61 -62 73
-86 17z"/>
<path d="M9840 5938 c0 -20 31 -67 63 -95 83 -73 211 -83 322 -28 42 21 61 37
63 52 4 26 -7 30 -118 38 -71 5 -159 16 -307 39 -13 2 -23 -1 -23 -6z m190
-74 c49 -8 92 -14 96 -13 5 1 20 0 34 -1 20 -2 16 -5 -20 -16 -60 -20 -124
-10 -185 28 -28 16 -41 27 -31 24 10 -4 58 -13 106 -22z"/>
<path d="M8252 3878 c-12 -6 -21 -16 -19 -22 9 -27 130 -14 172 18 18 14 14
15 -55 15 -41 0 -85 -5 -98 -11z"/>
<path d="M5989 7446 c-2 -2 -26 -7 -54 -10 -142 -19 -298 -73 -391 -136 -95
-64 -200 -178 -219 -240 -6 -19 5 -12 48 32 80 81 176 151 271 197 196 95 408
122 651 81 109 -18 139 -25 215 -46 53 -14 -42 45 -104 65 -63 21 -170 48
-196 50 -53 5 -218 10 -221 7z"/>
<path d="M7809 7414 c-27 -41 -68 -182 -93 -324 -19 -107 -38 -309 -30 -322 4
-6 6 -32 5 -59 -1 -46 11 -70 24 -49 3 5 12 10 18 10 7 0 2 -8 -10 -18 -12 -9
-24 -28 -25 -42 -3 -26 4 -28 50 -14 16 5 22 2 22 -9 0 -9 5 -28 11 -44 21
-55 27 0 18 154 -9 150 -4 244 31 550 6 51 10 118 8 150 l-3 57 -26 -40z"/>
<path d="M11885 7423 c-50 -26 -132 -101 -180 -163 -48 -63 -122 -206 -111
-217 7 -8 2 -14 65 79 28 43 60 85 70 95 10 10 35 41 56 68 20 28 62 74 93
102 58 54 60 65 7 36z"/>
<path d="M12630 7409 c0 -6 13 -23 29 -38 21 -20 28 -34 24 -49 -3 -15 6 -37
29 -69 111 -154 187 -371 205 -582 5 -65 8 -72 20 -56 7 11 13 46 14 79 l0 61
15 -39 c7 -21 19 -68 25 -103 12 -70 32 -90 56 -57 20 26 11 157 -17 247 -35
113 -96 253 -140 323 -29 46 -40 73 -36 88 4 18 -8 36 -62 87 -111 109 -162
142 -162 108z"/>
<path d="M12461 7393 c0 -5 39 -39 85 -78 47 -38 99 -83 115 -99 27 -28 29
-28 29 -9 0 34 -186 193 -226 193 -2 0 -4 -3 -3 -7z"/>
<path d="M12956 7331 c-3 -5 20 -32 52 -59 l58 -51 23 -182 c24 -193 27 -209
44 -209 15 0 1 -149 -19 -199 -19 -48 -16 -56 13 -36 29 21 62 113 69 193 8
85 -11 238 -36 305 -11 29 -20 63 -20 75 0 41 -168 189 -184 163z"/>
<path d="M6655 7293 c33 -22 93 -63 133 -91 39 -29 74 -52 77 -52 15 0 -33 54
-78 87 -72 54 -119 80 -158 88 -31 6 -28 3 26 -32z"/>
<path d="M12211 7326 c2 -2 27 -6 54 -10 36 -5 46 -4 35 3 -13 10 -99 16 -89
7z"/>
<path d="M6438 7280 c43 -27 104 -51 110 -45 3 3 -3 14 -13 25 -18 20 -73 40
-110 40 -16 0 -13 -4 13 -20z"/>
<path d="M6711 7184 c153 -157 217 -247 263 -367 36 -95 51 -159 60 -262 l6
-60 -21 74 c-34 125 -104 251 -193 349 -50 54 -50 36 2 -60 49 -93 114 -233
127 -275 5 -19 0 -25 -28 -36 -38 -17 -77 -61 -77 -89 0 -16 8 -13 59 21 42
29 61 37 64 27 3 -7 11 -65 17 -127 10 -88 10 -138 1 -213 -15 -131 -76 -359
-117 -439 -60 -115 -244 -200 -383 -176 -25 5 -105 38 -178 74 l-131 66 -35
82 c-52 126 -63 176 -50 245 16 83 47 143 96 182 160 132 341 380 407 561 33
88 70 238 69 277 0 31 8 50 -74 -168 -73 -191 -139 -302 -282 -472 -100 -118
-172 -181 -300 -261 -61 -37 -119 -77 -130 -90 -28 -30 -79 -115 -98 -163
l-16 -39 32 35 c107 118 162 169 213 198 42 23 57 28 52 16 -42 -109 -27 -212
55 -389 27 -58 42 -141 35 -189 -10 -63 -56 -213 -86 -280 l-27 -61 -13 55
c-7 30 -25 82 -40 115 -25 54 -27 67 -19 115 11 67 4 76 -17 22 l-17 -41 -29
40 -29 40 11 100 c13 127 13 139 1 120 -5 -8 -12 -42 -16 -75 -3 -34 -9 -74
-12 -89 l-5 -29 -29 34 c-21 24 -28 29 -29 16 0 -23 70 -167 119 -243 49 -77
60 -113 62 -205 1 -41 6 -88 11 -105 5 -16 11 -39 13 -49 3 -11 29 -72 60
-135 55 -116 74 -183 69 -237 -10 -103 -17 -147 -34 -212 -21 -82 -37 -105
-94 -133 -42 -20 -56 -18 -56 11 0 10 -3 27 -7 37 -6 12 -10 1 -13 -35 -5 -51
-7 -55 -49 -80 -38 -22 -44 -24 -38 -8 4 10 2 37 -4 59 l-11 41 -13 -29 c-8
-17 -53 -70 -100 -120 -139 -144 -201 -248 -190 -316 7 -43 25 -53 25 -15 0
25 35 112 49 120 11 7 24 -60 16 -75 -8 -12 22 -49 40 -49 7 0 25 30 40 66 16
38 49 89 78 121 51 56 145 123 172 123 8 0 15 4 15 8 0 5 40 37 90 71 49 34
92 66 96 72 3 6 -1 18 -10 28 -15 17 -14 19 19 37 56 30 43 44 -19 19 -17 -8
-17 -7 -1 24 24 47 52 141 60 197 7 53 54 166 66 159 3 -3 10 -21 13 -40 8
-39 42 -66 52 -40 6 16 86 55 112 55 28 0 101 41 107 60 6 18 40 37 58 32 4
-1 12 9 17 23 5 14 17 28 25 31 8 4 15 12 15 19 0 8 9 16 19 20 25 7 38 44 21
55 -20 12 -4 40 22 37 15 -1 23 4 26 16 4 17 2 18 -27 2 -18 -9 -31 -11 -31
-5 0 10 21 20 93 49 15 6 27 15 27 21 0 17 -72 11 -118 -10 -38 -17 -47 -28
-85 -107 l-42 -88 -115 -77 c-63 -42 -118 -77 -122 -77 -4 -1 -10 10 -14 24
-3 14 -15 41 -25 62 -10 20 -16 39 -14 44 6 9 -204 203 -212 196 -7 -8 26 -67
62 -113 19 -22 53 -51 78 -64 l45 -24 -31 -60 -31 -61 -10 30 c-6 17 -39 85
-74 152 -34 68 -63 135 -63 150 1 16 1 39 1 52 1 13 19 53 40 88 80 133 136
301 128 385 -5 44 3 61 16 39 9 -14 116 -84 161 -104 27 -13 73 -20 140 -24
84 -4 109 -1 159 16 118 42 199 111 242 205 l22 51 -5 -72 c-6 -71 10 -212 28
-245 13 -24 19 -186 9 -238 -5 -25 -16 -88 -26 -140 -9 -52 -25 -117 -35 -144
-10 -28 -16 -52 -14 -54 13 -13 38 30 61 107 38 126 44 139 66 144 20 6 20 11
14 139 -4 94 -13 162 -32 233 -23 92 -39 228 -29 246 3 4 24 1 47 -6 34 -10
44 -18 49 -41 8 -32 46 -148 60 -179 4 -11 24 -75 43 -142 37 -130 63 -196 76
-188 29 18 -94 436 -155 524 -30 43 -36 62 -42 126 -6 77 -31 137 -34 85 -1
-14 -3 -38 -4 -55 -2 -16 -3 -38 -4 -47 -1 -10 -6 -18 -11 -18 -15 0 -3 131
21 240 14 59 23 163 31 340 11 248 10 257 -11 340 -23 90 -74 206 -123 278
-35 51 -135 154 -198 204 -86 68 -95 60 -19 -18z m349 -1407 c0 -5 -4 -5 -10
-2 -5 3 -10 14 -10 23 0 15 2 15 10 2 5 -8 10 -19 10 -23z m-380 -851 c-14
-14 -24 0 -16 21 6 15 8 15 16 3 6 -9 5 -19 0 -24z m-665 -696 c0 -7 -10 -19
-22 -27 -21 -14 -23 -14 -30 2 -4 12 0 23 12 32 22 15 40 12 40 -7z"/>
<path d="M12330 7223 c0 -52 212 -274 237 -249 8 8 -207 255 -229 264 -4 2 -8
-5 -8 -15z"/>
<path d="M9050 7169 c0 -32 12 -78 43 -161 7 -21 16 -41 20 -44 16 -17 3 -35
-65 -90 -39 -33 -76 -62 -81 -65 -6 -4 1 -27 16 -54 15 -26 25 -51 22 -55 -3
-5 -29 -22 -58 -39 -28 -17 -74 -51 -100 -75 -27 -25 -67 -59 -89 -77 -43 -36
-154 -166 -183 -215 -11 -20 -26 -32 -39 -31 -12 0 -28 -3 -36 -6 -10 -5 -19
2 -27 20 -16 33 -10 39 22 25 28 -13 30 -10 14 21 -12 21 -12 21 15 4 14 -10
26 -14 26 -9 0 34 -156 168 -245 211 -60 28 -65 33 -65 63 0 41 -15 67 -29 53
-6 -6 -15 -42 -20 -80 -11 -74 -4 -90 32 -81 19 5 24 -10 5 -17 -10 -3 -10 -7
1 -20 15 -19 46 -23 56 -7 3 6 12 10 18 10 7 0 2 -8 -11 -18 -20 -16 -21 -19
-8 -37 14 -19 15 -19 51 -2 46 22 59 15 16 -8 -35 -17 -38 -27 -16 -45 13 -11
22 -10 52 4 44 21 57 14 14 -9 -17 -8 -31 -19 -31 -24 0 -17 30 -33 51 -28 17
5 18 3 7 -10 -11 -14 -8 -19 17 -37 16 -12 43 -34 59 -51 19 -19 31 -26 33
-17 3 6 11 12 19 12 8 0 14 10 14 23 0 25 28 57 49 57 6 0 16 11 21 25 6 17
14 23 25 19 11 -5 18 0 22 15 3 11 13 21 22 21 18 1 109 100 91 100 -10 0 -10
4 0 15 14 17 35 21 25 5 -10 -16 11 -12 25 5 10 12 9 15 -6 16 -19 0 -19 0 0
12 10 7 55 49 99 94 69 71 83 82 105 76 23 -5 24 -4 18 22 -4 15 -23 47 -42
70 l-34 43 76 36 c42 20 80 36 85 36 13 0 29 35 29 63 0 18 -108 247 -126 266
-2 2 -4 -11 -4 -30z m-510 -950 c0 -10 -4 -19 -9 -19 -14 0 -33 28 -27 39 10
16 36 1 36 -20z"/>
<path d="M12020 7101 c0 -61 111 -241 149 -241 9 0 9 5 1 18 -6 9 -42 71 -80
137 -62 107 -70 116 -70 86z"/>
<path d="M6410 7013 c-99 -245 -273 -570 -385 -723 -59 -79 -25 -63 47 23 103
124 254 384 312 540 30 79 70 227 63 233 -3 3 -19 -30 -37 -73z"/>
<path d="M11772 7006 c11 -92 136 -248 262 -326 31 -19 94 -59 139 -88 166
-106 296 -162 379 -162 31 0 38 4 38 19 0 14 -20 27 -81 51 -44 18 -86 38 -93
45 -7 7 -30 22 -52 33 -77 39 -376 271 -479 371 -57 55 -107 101 -111 101 -4
0 -4 -20 -2 -44z"/>
<path d="M5243 6927 c-27 -40 -47 -85 -57 -127 -22 -99 -46 -283 -46 -358 0
-65 24 -241 37 -272 19 -47 28 -238 14 -297 -20 -85 -50 -139 -87 -157 -26
-12 -34 -22 -34 -42 0 -19 4 -25 15 -20 19 7 20 -20 1 -31 -17 -9 -22 -41 -11
-66 4 -10 2 -23 -4 -31 -9 -11 -7 -15 9 -19 28 -7 27 -44 -2 -43 -19 1 -27 15
-54 99 -31 93 -76 177 -95 177 -14 0 -12 -5 41 -176 90 -290 91 -292 104 -239
4 14 13 25 21 25 18 0 13 -54 -13 -135 -8 -27 -14 -52 -13 -54 2 -2 -1 -7 -6
-10 -11 -8 -46 -83 -63 -136 -7 -22 -16 -48 -21 -57 -20 -40 -42 -169 -43
-248 0 -67 4 -95 22 -134 l22 -49 -65 -68 c-63 -67 -80 -99 -51 -99 23 0 60
36 91 89 17 28 35 51 40 51 31 0 146 -222 154 -299 8 -70 24 -52 23 25 -1 96
-39 198 -114 305 -22 31 -45 76 -52 101 -29 93 0 245 89 473 38 98 55 163 55
210 l0 40 30 -52 c30 -53 61 -84 46 -47 -17 40 -45 146 -61 228 -19 97 -14
139 29 225 64 128 77 282 38 466 -32 150 -32 152 -33 265 0 133 36 368 77 493
9 27 14 50 12 52 -2 2 -23 -24 -45 -58z m-123 -1503 c0 -8 -4 -14 -10 -14 -5
0 -10 9 -10 21 0 11 5 17 10 14 6 -3 10 -13 10 -21z m-30 -34 c0 -11 -4 -20
-10 -20 -5 0 -10 9 -10 20 0 11 5 20 10 20 6 0 10 -9 10 -20z"/>
<path d="M11500 6920 c-27 -38 -60 -139 -60 -184 0 -48 28 -133 48 -148 10 -7
33 -50 51 -96 19 -45 36 -80 39 -78 7 8 -48 158 -67 180 -23 26 -22 220 2 295
9 30 15 56 13 58 -2 2 -14 -10 -26 -27z"/>
<path d="M5582 6876 c-114 -108 -206 -259 -243 -400 -44 -163 -47 -407 -7
-505 12 -29 13 -16 11 116 -1 81 2 168 7 193 8 38 15 71 45 201 20 92 141 309
221 398 26 29 44 54 41 57 -3 3 -37 -24 -75 -60z"/>
<path d="M11584 6875 c-7 -28 4 -78 30 -137 18 -43 11 -47 -27 -18 -31 25 -49
25 -70 2 -21 -23 -21 -42 -2 -88 18 -43 114 -145 175 -187 25 -17 60 -43 78
-59 50 -43 207 -114 302 -136 47 -12 118 -32 158 -47 92 -33 233 -46 351 -33
93 11 246 12 262 2 5 -3 -7 -17 -28 -31 -46 -31 -122 -98 -263 -231 l-104 -99
-66 30 c-56 26 -77 30 -150 31 -53 0 -94 -5 -110 -14 -13 -7 -41 -12 -62 -12
-20 1 -39 -2 -42 -7 -7 -11 67 -21 152 -21 36 0 115 -5 177 -12 l112 -11 44
26 c24 14 64 45 89 67 25 22 63 55 85 72 l40 32 -26 -30 c-14 -16 -56 -65 -94
-109 -37 -44 -72 -84 -76 -89 -6 -6 -15 -2 -23 10 -8 10 -18 16 -22 12 -9 -10
25 -138 37 -138 5 0 9 23 9 50 0 28 4 50 10 50 5 0 56 45 113 99 94 91 196
222 227 292 11 24 19 27 83 33 l72 7 28 -33 c20 -24 27 -28 27 -14 0 9 -5 26
-10 37 -6 11 -8 25 -4 31 13 21 14 69 2 82 -7 7 -22 11 -35 8 -12 -2 -40 5
-60 15 -21 11 -52 20 -68 21 -17 0 -55 10 -85 21 -30 12 -65 21 -76 21 -12 0
-40 6 -62 14 -22 8 -44 11 -48 6 -5 -4 -38 -1 -74 6 -36 8 -74 16 -85 18 -127
24 -255 62 -334 98 -68 31 -85 30 -56 -2 43 -47 184 -117 272 -135 19 -4 41
-19 57 -39 22 -29 112 -80 216 -123 21 -9 17 -10 -25 -7 -233 16 -365 48 -515
124 -80 41 -92 38 -45 -11 l40 -41 -40 16 c-22 9 -75 38 -117 64 -63 38 -76
50 -72 67 3 14 -8 32 -41 65 -57 56 -58 70 -2 32 59 -41 253 -138 302 -151
114 -31 159 5 63 50 -29 13 -100 51 -158 85 -58 33 -155 89 -217 124 l-112 63
-36 75 c-20 42 -39 88 -42 104 -7 35 -21 36 -29 3z m1176 -829 c0 -2 -8 -10
-17 -17 -16 -13 -17 -12 -4 4 13 16 21 21 21 13z"/>
<path d="M12136 6821 c-9 -14 53 -61 120 -92 34 -15 64 -32 68 -37 8 -14 127
-53 152 -50 10 1 49 -7 86 -19 82 -27 158 -37 177 -25 22 15 5 29 -57 47 -31
9 -163 55 -293 101 -130 46 -239 84 -242 84 -3 0 -8 -4 -11 -9z"/>
<path d="M12460 6795 c14 -8 48 -22 75 -31 28 -9 73 -29 100 -44 28 -15 73
-36 100 -45 28 -10 56 -23 63 -28 21 -17 27 2 6 22 -29 27 -190 97 -277 120
-90 24 -101 25 -67 6z"/>
<path d="M5697 6613 c-15 -37 -25 -68 -23 -70 2 -2 16 26 30 63 15 36 25 68
23 70 -2 2 -16 -26 -30 -63z"/>
<path d="M5846 6648 c-9 -45 -94 -235 -123 -275 -28 -38 -18 -43 22 -11 36 28
111 184 120 249 8 59 -9 92 -19 37z"/>
<path d="M6056 6559 c-20 -56 -35 -103 -33 -105 2 -2 21 41 42 96 21 56 36
103 33 105 -2 3 -21 -41 -42 -96z"/>
<path d="M9237 6599 c-3 -13 -1 -19 6 -16 15 5 22 37 9 37 -5 0 -12 -9 -15
-21z"/>
<path d="M13235 6499 c-24 -12 -95 -106 -95 -126 0 -9 15 -3 43 20 53 43 99
61 132 53 30 -8 65 -59 61 -90 -8 -60 -22 -109 -53 -185 -18 -46 -32 -86 -29
-88 9 -9 67 72 102 141 46 93 51 162 16 218 -34 55 -123 83 -177 57z"/>
<path d="M7343 6421 c-34 -20 -85 -49 -114 -66 -43 -25 -49 -31 -31 -33 44 -7
188 74 212 118 14 27 6 24 -67 -19z"/>
<path d="M11600 6412 c0 -8 43 -32 55 -32 15 0 1 19 -20 28 -31 14 -35 15 -35
4z"/>
<path d="M11676 6403 c-8 -31 -18 -102 -20 -156 -2 -29 -12 -69 -24 -92 -12
-23 -26 -62 -31 -88 -11 -59 -3 -64 140 -106 58 -17 138 -44 179 -61 40 -17
78 -29 84 -27 19 6 -93 85 -151 107 -32 12 -89 24 -128 26 -38 3 -80 7 -92 10
l-22 4 24 53 c14 28 25 60 25 70 0 30 14 18 33 -27 10 -24 28 -52 39 -62 21
-19 21 -19 15 21 -3 22 -12 72 -21 110 -16 80 -25 143 -25 198 -1 38 -16 50
-25 20z"/>
<path d="M6895 6373 c-28 -28 -5 -113 31 -113 38 0 42 100 4 120 -14 7 -23 6
-35 -7z"/>
<path d="M6511 6368 c-42 -12 -79 -35 -108 -67 -31 -35 -19 -43 33 -21 24 11
83 31 130 46 53 16 83 29 77 35 -14 14 -93 18 -132 7z"/>
<path d="M13206 6364 c-9 -8 -16 -24 -16 -34 0 -16 4 -18 24 -10 31 12 41 0
60 -71 l14 -54 12 30 c15 37 6 112 -17 137 -20 22 -56 23 -77 2z"/>
<path d="M6819 6314 c-14 -38 1 -107 42 -194 l30 -63 -36 -69 c-44 -83 -29
-91 39 -18 56 60 58 86 16 169 -16 33 -37 88 -46 123 -22 79 -30 89 -45 52z"/>
<path d="M9170 6249 c0 -11 5 -17 10 -14 6 3 10 13 10 21 0 8 -4 14 -10 14 -5
0 -10 -9 -10 -21z"/>
<path d="M6489 6219 c-12 -24 -4 -106 13 -126 13 -16 54 -17 63 -3 4 6 8 30
10 53 6 73 -57 129 -86 76z"/>
<path d="M13440 6166 c0 -5 18 -40 40 -78 22 -39 40 -71 40 -74 0 -2 43 -77
97 -166 100 -169 195 -367 253 -525 19 -50 38 -89 42 -87 4 3 8 11 8 17 0 7
10 17 23 22 14 7 21 17 19 30 -2 11 -6 35 -9 53 -3 19 -11 36 -19 39 -9 3 -11
14 -7 34 5 25 2 29 -16 29 -11 0 -21 5 -21 10 0 6 5 10 11 10 6 0 9 10 7 23
-2 16 -9 21 -26 20 -12 -2 -22 2 -22 7 0 6 7 10 15 10 18 0 20 31 3 48 -9 9
-16 8 -30 -5 -17 -15 -18 -15 -18 0 0 10 7 17 15 17 20 0 20 49 0 56 -9 4 -13
14 -10 28 8 34 -8 51 -35 36 -12 -6 -24 -9 -28 -6 -3 3 0 6 7 6 7 0 -4 16 -25
35 -20 19 -34 39 -29 43 4 4 10 1 12 -5 8 -22 31 -14 37 12 8 33 -1 47 -25 40
-21 -7 -25 5 -7 23 16 16 -9 44 -33 37 -10 -3 -27 0 -38 7 -22 14 -28 38 -10
38 6 0 9 7 5 15 -3 8 2 19 12 24 15 8 9 17 -38 60 -55 51 -77 60 -97 40 -7 -7
-24 3 -57 38 -25 26 -46 44 -46 39z m190 -196 c0 -5 -2 -10 -4 -10 -3 0 -8 5
-11 10 -3 6 -1 10 4 10 6 0 11 -4 11 -10z m190 -320 c0 -5 -4 -10 -10 -10 -5
0 -10 5 -10 10 0 6 5 10 10 10 6 0 10 -4 10 -10z m120 -330 c0 -5 -4 -10 -10
-10 -5 0 -10 5 -10 10 0 6 5 10 10 10 6 0 10 -4 10 -10z"/>
<path d="M7713 6125 c-19 -63 -64 -296 -60 -309 7 -19 35 47 57 133 14 54 20
106 18 149 l-3 67 -12 -40z"/>
<path d="M13707 6091 c47 -26 296 -117 340 -124 10 -2 28 -9 41 -15 12 -7 22
-10 22 -7 0 3 9 1 21 -5 11 -7 55 -22 97 -35 73 -22 183 -64 315 -122 32 -13
61 -23 64 -20 7 8 -145 113 -218 151 -37 18 -107 46 -155 61 -49 15 -130 40
-180 56 -90 28 -355 89 -384 89 -8 0 8 -13 37 -29z"/>
<path d="M8939 6041 c-26 -26 -39 -61 -23 -61 15 0 94 63 94 75 0 25 -40 17
-71 -14z"/>
<path d="M11849 6036 c8 -10 32 -26 53 -37 30 -15 38 -16 38 -5 0 17 -38 43
-76 52 -27 7 -28 6 -15 -10z"/>
<path d="M13316 6041 c-23 -37 20 -170 60 -185 11 -4 14 -13 10 -29 -3 -12
-11 -85 -16 -162 -6 -77 -15 -156 -20 -175 -5 -20 -36 -67 -67 -105 -61 -73
-113 -149 -156 -225 -33 -59 -120 -281 -113 -288 7 -6 5 -9 45 50 17 26 54 91
83 145 28 54 58 112 67 128 15 28 137 194 151 205 3 3 17 23 31 45 23 38 24
47 24 215 0 154 -2 178 -19 202 -10 15 -22 45 -27 66 -14 63 -44 128 -53 113z"/>
<path d="M8934 5972 c-31 -23 -42 -39 -51 -78 -24 -99 -25 -130 -7 -148 23
-24 47 -16 56 19 17 69 55 163 76 190 22 27 22 30 5 36 -30 12 -38 10 -79 -19z"/>
<path d="M5607 5953 c-47 -93 -56 -363 -18 -518 25 -103 32 -127 40 -143 4 -9
29 -60 55 -112 25 -52 60 -117 76 -145 16 -27 38 -68 48 -90 30 -61 63 -140
61 -140 -2 0 4 -13 13 -30 54 -103 98 -252 98 -334 0 -74 18 -55 23 24 5 83
-16 198 -59 313 -41 109 -107 254 -134 292 -76 107 -154 305 -181 456 -23 131
-29 339 -11 412 12 49 8 53 -11 15z"/>
<path d="M12200 5974 c-8 -4 -30 -13 -48 -20 -50 -20 -31 -31 40 -23 35 4 90
10 123 14 62 7 73 11 62 22 -9 9 -158 14 -177 7z"/>
<path d="M13235 5935 c-110 -191 -173 -289 -236 -359 -55 -63 -119 -126 -128
-126 -3 0 -24 -17 -47 -38 -44 -40 -54 -46 -130 -85 -57 -30 -208 -63 -244
-54 -14 3 -59 28 -100 54 l-75 48 55 6 c56 7 129 34 165 63 11 8 16 16 10 16
-19 0 -160 -31 -208 -47 -45 -15 -52 -15 -83 0 -41 20 -43 11 -6 -35 39 -50
89 -91 153 -127 51 -28 63 -31 145 -31 174 0 297 64 484 250 112 112 159 176
211 285 38 81 73 197 66 218 -2 6 -16 -11 -32 -38z"/>
<path d="M11660 5964 c0 -38 99 -124 193 -169 22 -10 41 -25 44 -34 20 -65 48
-122 68 -141 19 -18 22 -30 20 -68 -5 -64 5 -104 25 -109 14 -4 18 -22 23
-116 6 -126 17 -165 59 -219 33 -43 54 -50 44 -15 -5 18 -27 97 -40 142 -2 6
-5 17 -8 25 -11 29 -28 122 -28 149 0 23 6 30 31 37 42 12 37 28 -9 32 l-39 3
-6 122 c-3 67 -11 140 -18 162 -12 38 -13 39 -20 15 -4 -14 -7 -54 -8 -89 l-1
-64 -32 64 c-31 61 -32 64 -13 67 39 7 65 52 30 52 -8 0 -15 3 -15 8 0 4 -9
22 -20 39 -21 35 -44 36 -53 2 -5 -18 -8 -18 -64 12 -32 18 -76 44 -98 59 -56
38 -65 42 -65 34z"/>
<path d="M4990 5846 c-261 -109 -436 -284 -655 -656 -49 -83 -120 -185 -229
-330 -84 -111 -95 -130 -78 -130 24 0 232 207 232 231 0 4 6 14 13 21 14 15
55 77 142 218 108 176 163 255 226 325 58 66 151 147 209 183 14 9 27 19 30
22 3 3 32 19 65 36 111 58 165 89 165 97 0 15 -66 6 -120 -17z"/>
<path d="M6814 5835 c-51 -18 -117 -36 -148 -40 -69 -9 -78 -20 -30 -35 73
-24 216 18 257 76 11 14 17 27 15 29 -1 1 -44 -12 -94 -30z"/>
<path d="M8168 5798 c14 -56 176 -178 236 -178 8 0 18 -4 21 -10 16 -26 186
-1 255 37 33 19 41 40 12 35 -60 -11 -201 -13 -253 -3 -68 14 -186 72 -230
113 -35 34 -49 36 -41 6z"/>
<path d="M8596 5801 c-7 -10 27 -21 64 -21 19 1 21 3 10 9 -26 14 -69 21 -74
12z"/>
<path d="M11645 5775 c-60 -19 -113 -34 -117 -35 -3 0 -28 -22 -55 -48 -59
-59 -144 -224 -171 -332 -11 -41 -26 -89 -35 -107 -21 -40 -21 -47 -2 -39 17
6 18 0 5 -29 -5 -11 -9 -15 -9 -10 -1 15 -61 106 -97 147 -67 77 -260 203
-378 248 l-28 10 27 -32 c15 -18 55 -53 89 -78 67 -49 75 -64 36 -64 -22 -1
-32 -16 -82 -116 -62 -126 -98 -240 -98 -314 l0 -48 30 7 c25 6 30 4 30 -13 0
-22 -19 -33 -47 -26 -17 5 -18 -5 -21 -137 -2 -118 -7 -162 -32 -258 -16 -64
-36 -136 -45 -161 -9 -25 -20 -62 -24 -82 -8 -34 -7 -38 11 -38 18 0 20 -5 14
-32 l-6 -33 20 25 c78 97 151 237 179 342 17 61 20 105 19 263 0 228 12 325
59 464 56 168 47 160 125 98 73 -57 137 -143 168 -225 37 -97 25 -237 -44
-515 -13 -51 -24 -120 -25 -155 -1 -34 -8 -92 -16 -130 -8 -37 -15 -92 -15
-123 l0 -55 -167 -52 c-179 -56 -203 -60 -203 -38 0 35 -87 102 -107 82 -3 -2
17 -32 44 -65 42 -54 52 -61 83 -61 52 0 206 29 252 47 21 8 40 14 42 12 2 -2
6 -75 9 -162 4 -144 3 -158 -12 -151 -28 12 -135 34 -168 34 -26 0 -33 4 -33
19 0 11 -4 22 -10 26 -9 6 -23 -39 -35 -114 -8 -48 -36 -81 -88 -102 -17 -7
-34 -15 -37 -18 -5 -6 -64 -29 -84 -34 -5 -1 -10 3 -12 8 -2 6 18 22 45 38 50
28 141 121 141 144 0 18 -6 17 -53 -15 -23 -16 -69 -44 -102 -63 -56 -32 -65
-34 -148 -33 -87 1 -87 1 -70 -18 29 -32 69 -48 120 -48 l48 0 32 -82 c26 -69
114 -275 167 -393 24 -53 46 -126 41 -135 -3 -5 -36 -15 -73 -24 -189 -42
-780 -63 -1102 -38 -209 16 -648 25 -737 14 -40 -4 -73 -7 -73 -5 0 1 19 12
41 24 85 43 186 177 224 298 13 43 -14 13 -47 -52 l-32 -62 -9 37 c-19 77
-128 145 -269 168 -226 36 -416 -8 -843 -196 -165 -73 -338 -128 -510 -164
-55 -11 -110 -23 -123 -26 -13 -2 -20 -9 -16 -15 8 -13 253 -4 309 11 81 23
249 81 299 104 28 13 87 38 131 56 44 19 107 46 140 60 80 36 281 100 308 99
20 -1 20 -2 2 -6 -96 -22 -167 -51 -405 -165 -255 -123 -364 -158 -628 -202
-22 -4 -31 -2 -26 5 7 12 -56 5 -113 -12 -37 -12 -40 -20 -18 -39 27 -23 282
10 445 57 63 18 246 98 464 202 227 109 334 137 487 129 49 -3 92 -8 95 -11 3
-3 -12 -38 -32 -78 -47 -92 -93 -226 -86 -251 5 -20 32 -24 50 -6 9 9 29 9 84
0 71 -11 170 -16 542 -27 99 -3 182 -8 185 -9 26 -16 519 -26 796 -17 179 6
384 29 508 56 54 13 96 43 97 70 1 36 -64 203 -85 217 -5 4 -7 8 -3 8 4 0 -13
39 -39 88 -67 128 -133 259 -133 265 0 2 21 7 46 11 57 7 125 37 159 68 18 17
28 41 35 83 5 33 10 63 10 66 0 4 30 -2 67 -12 37 -11 84 -19 104 -19 31 0 38
-4 43 -26 21 -82 53 102 36 207 -6 39 -8 80 -5 90 4 11 2 19 -4 19 -5 0 -17
14 -25 31 -15 30 -15 32 11 52 50 40 96 174 113 330 6 56 22 140 35 187 55
197 66 304 54 510 -4 71 8 105 91 239 22 36 51 94 65 130 52 130 62 144 131
189 62 41 77 49 172 88 43 18 56 34 25 34 -10 -1 -67 -16 -128 -35z m-864
-1028 c-7 -7 -15 -6 -26 3 -15 12 -14 15 7 26 19 11 24 10 26 -3 2 -8 -1 -20
-7 -26z m-2121 -1471 c89 -7 183 -32 227 -60 37 -24 68 -84 59 -113 -17 -54
-158 -156 -248 -178 l-26 -7 23 64 c13 34 35 88 49 118 14 30 26 65 26 78 0
26 19 28 61 6 46 -23 47 -9 2 19 -76 48 -129 60 -263 61 -102 0 -115 2 -71 8
30 5 57 10 59 12 2 3 9 3 15 1 7 -2 46 -6 87 -9z"/>
<path d="M12060 5797 c0 -18 62 -102 98 -134 46 -40 188 -57 261 -32 57 20 39
29 -79 41 -20 2 -26 9 -28 33 -5 49 -23 85 -43 85 -22 0 -34 -37 -25 -81 5
-28 4 -30 -17 -23 -23 7 -51 27 -124 90 -30 25 -43 32 -43 21z"/>
<path d="M14731 5693 c95 -86 151 -145 257 -273 52 -63 152 -171 221 -240 126
-125 233 -247 306 -349 22 -30 41 -49 43 -43 5 16 -64 147 -119 227 -27 39
-102 122 -166 186 -107 104 -172 174 -273 293 -88 104 -193 191 -287 240 -53
27 -50 19 18 -41z"/>
<path d="M14624 5709 c-21 -12 -50 -27 -64 -35 -29 -15 -46 -31 -94 -91 -53
-66 -72 -102 -95 -177 -12 -38 -30 -84 -41 -101 -24 -39 -26 -59 -5 -51 15 5
15 -14 -1 -63 -3 -8 -7 -37 -10 -65 -3 -28 -10 -64 -16 -79 -7 -18 -8 -63 -4
-125 3 -53 7 -104 7 -112 2 -46 59 -199 108 -295 59 -112 111 -198 118 -192 2
2 -24 84 -57 183 -105 311 -116 407 -76 634 35 196 52 273 68 301 36 67 104
163 154 218 31 34 54 64 52 66 -2 3 -22 -5 -44 -16z"/>
<path d="M7230 5655 c0 -15 54 -108 57 -99 2 6 -8 32 -23 57 -23 43 -34 56
-34 42z"/>
<path d="M11545 5570 c-4 -16 -10 -30 -15 -30 -20 0 -32 -223 -19 -340 11 -97
33 -192 71 -310 35 -109 37 -112 47 -106 4 3 4 34 0 68 -5 35 -11 80 -14 102
-4 33 -3 37 10 26 25 -20 29 -4 11 41 -15 38 -47 181 -45 204 0 6 9 -8 19 -30
l19 -40 -6 40 c-7 49 -20 85 -30 85 -5 0 -9 27 -11 61 -1 33 -7 70 -13 81 -7
14 -9 47 -5 94 7 74 -6 111 -19 54z"/>
<path d="M11716 5575 c-3 -8 -3 -22 0 -30 4 -8 2 -15 -2 -15 -5 0 -10 -26 -12
-58 -2 -43 -7 -61 -22 -74 -24 -19 -27 -53 -5 -44 8 3 15 1 15 -5 0 -6 -7 -17
-15 -25 -20 -21 -19 -54 2 -54 14 0 14 -2 2 -17 -18 -21 -19 -118 -2 -148 6
-11 14 -38 18 -60 28 -155 69 -270 133 -369 17 -28 32 -55 32 -60 0 -11 100
-134 131 -161 l22 -20 -7 38 c-4 23 -3 37 4 37 5 0 10 -11 10 -23 0 -13 3 -26
6 -30 7 -7 56 14 51 22 -1 3 -17 36 -35 74 -32 69 -47 86 -36 42 7 -30 5 -31
-39 -5 -39 23 -80 90 -59 97 16 6 15 28 -1 42 -10 8 -17 7 -25 -1 -9 -9 -12
-8 -12 4 0 9 5 20 10 23 16 10 -7 45 -25 39 -8 -4 -15 -2 -15 4 0 6 5 12 11
14 7 2 7 12 0 31 -6 16 -15 26 -19 23 -5 -3 -6 8 -4 24 3 24 0 31 -19 38 -15
6 -18 11 -11 16 17 10 15 43 -4 50 -8 3 -12 11 -9 16 10 16 -4 62 -15 55 -12
-8 -12 -3 -1 29 8 18 6 28 -5 37 -9 7 -13 21 -10 32 3 11 1 27 -3 36 -5 9 -11
75 -14 146 -4 72 -3 120 1 107 12 -38 27 -24 24 21 -6 87 -30 142 -46 102z
m274 -1013 c0 -13 -12 -22 -22 -16 -10 6 -1 24 13 24 5 0 9 -4 9 -8z"/>
<path d="M8972 5553 c-8 -14 -9 -24 -2 -28 12 -7 24 18 18 37 -3 8 -9 5 -16
-9z"/>
<path d="M6810 5507 c0 -3 4 -17 9 -30 12 -32 15 -170 6 -267 -5 -54 -3 -91 8
-132 19 -73 15 -309 -7 -388 -19 -67 -19 -71 -3 -67 7 1 13 -11 15 -30 2 -18
7 -33 11 -33 12 0 18 41 32 221 10 127 10 173 0 240 -23 148 -24 169 -10 202
20 47 15 143 -10 209 -18 47 -51 95 -51 75z"/>
<path d="M10736 5492 c-3 -5 -14 -34 -26 -65 -25 -67 -104 -190 -151 -234 -19
-18 -52 -39 -74 -48 -41 -16 -40 -15 20 33 15 12 26 24 23 27 -6 6 -118 -49
-171 -84 -34 -22 -38 -28 -33 -55 5 -29 1 -34 -74 -85 -44 -29 -80 -56 -80
-60 0 -4 -13 -15 -30 -24 -50 -30 -185 -252 -143 -236 6 2 33 32 62 67 29 35
60 62 70 62 10 0 24 7 31 15 7 8 18 15 25 15 7 0 18 7 25 15 14 17 50 20 50 5
0 -5 -6 -10 -14 -10 -7 0 -25 -9 -39 -20 -14 -11 -32 -20 -41 -20 -9 0 -16 -4
-16 -10 0 -5 -13 -16 -28 -24 -15 -8 -33 -26 -40 -40 -11 -24 -10 -26 12 -26
12 0 31 9 41 20 10 11 24 20 30 20 15 0 123 97 137 124 9 17 7 18 -12 13 -24
-6 -60 7 -60 22 0 5 11 16 24 24 22 15 25 14 44 -4 25 -23 42 -25 42 -4 0 8 9
15 20 15 34 0 102 39 96 55 -3 9 4 20 17 26 31 16 37 29 30 61 -4 23 -2 28 13
28 30 0 117 45 142 73 26 28 78 194 88 282 6 51 3 67 -10 47z m-306 -471 c0
-9 -41 -23 -48 -16 -2 2 -1 8 3 14 8 13 45 15 45 2z"/>
<path d="M6456 5472 c-26 -43 -11 -192 24 -234 l19 -23 1 36 c0 48 -20 201
-30 218 -5 9 -10 10 -14 3z"/>
<path d="M8115 5459 c-9 -14 -2 -20 14 -10 8 6 9 11 3 15 -6 3 -14 1 -17 -5z"/>
<path d="M9576 5438 c35 -68 113 -250 119 -280 4 -17 28 -51 54 -77 92 -90
196 -180 199 -171 7 20 -36 80 -114 155 -65 63 -87 92 -103 135 -12 31 -52
104 -91 163 -68 105 -97 139 -64 75z"/>
<path d="M4524 5297 c-11 -12 -28 -34 -37 -49 -28 -45 -77 -206 -88 -287 -10
-78 -3 -201 11 -201 5 0 12 26 15 58 9 78 11 92 30 180 25 114 64 251 81 285
19 37 13 44 -12 14z"/>
<path d="M14636 5283 c-7 -16 -24 -68 -37 -118 -27 -103 -32 -268 -10 -345 17
-59 41 -110 53 -110 5 0 6 15 3 33 -3 17 -7 46 -10 62 -15 88 -2 390 21 480 8
33 -2 32 -20 -2z"/>
<path d="M13468 5263 c-47 -54 -82 -136 -102 -237 l-11 -58 -71 -22 c-81 -26
-155 -65 -200 -104 -39 -34 -74 -90 -74 -119 0 -59 -20 -65 -84 -28 -23 13
-51 26 -61 28 -11 1 -29 8 -39 14 -10 6 -27 8 -37 6 -13 -4 -19 0 -19 11 0 20
13 20 52 0 46 -24 87 -34 93 -23 9 13 -126 97 -214 134 -42 18 -107 38 -146
45 -95 17 -98 18 -91 35 3 8 9 23 12 33 5 16 5 16 -8 1 -12 -14 -17 -15 -37
-4 l-24 12 29 8 c26 7 27 8 9 15 -11 5 -64 9 -118 9 -58 1 -111 7 -130 15 -36
15 -77 6 -77 -18 0 -12 46 -29 200 -75 17 -5 29 -19 38 -47 15 -47 37 -67 100
-89 26 -10 70 -26 99 -37 l52 -20 22 21 c41 38 68 19 32 -22 -15 -16 -16 -20
-3 -27 8 -5 30 -20 48 -33 l33 -25 24 24 c13 13 29 24 35 24 17 0 11 -31 -10
-48 -20 -17 -19 -19 61 -91 74 -67 82 -72 96 -58 15 15 15 20 1 57 l-16 40 24
-5 c13 -3 35 -7 49 -10 19 -4 30 2 52 32 38 52 196 206 260 254 30 22 59 54
67 73 8 18 19 37 25 40 6 4 11 18 11 31 0 13 6 28 14 32 20 12 38 51 26 58 -5
3 -7 12 -4 20 4 8 10 12 15 9 6 -3 27 14 48 37 l38 43 49 -12 c27 -7 69 -12
94 -11 43 2 86 -2 209 -17 43 -5 53 -4 49 7 -6 18 -228 74 -326 83 -83 7 -87
-3 -12 -30 30 -11 46 -22 41 -27 -6 -6 -21 -2 -38 8 -27 16 -31 16 -83 -4 -29
-11 -56 -18 -59 -16 -2 3 3 21 12 40 13 27 14 35 3 35 -7 0 -20 -8 -28 -17z
m-118 -331 c0 -5 -12 -14 -27 -21 l-28 -12 25 21 c29 22 30 23 30 12z"/>
<path d="M8667 5203 c-20 -38 -39 -143 -39 -219 -1 -78 14 -107 23 -44 3 25
14 99 23 164 9 66 14 121 12 123 -3 3 -11 -8 -19 -24z"/>
<path d="M7138 5148 c-19 -83 -34 -169 -42 -243 -3 -27 -10 -76 -16 -108 -6
-31 -9 -61 -5 -66 3 -5 -1 -11 -7 -14 -10 -4 -11 -7 0 -18 8 -9 12 -51 12
-133 0 -106 -4 -138 -36 -261 -20 -77 -45 -165 -56 -195 -53 -146 -24 -128 55
33 74 149 98 230 106 351 l6 100 28 -51 c41 -77 107 -146 135 -142 l22 4 -29
60 c-16 33 -60 94 -98 135 l-68 75 7 100 c15 222 21 445 11 445 -5 0 -16 -33
-25 -72z"/>
<path d="M6479 5183 c-24 -26 -153 -222 -178 -270 -23 -45 8 -21 77 57 69 80
136 196 130 226 -2 12 -9 9 -29 -13z"/>
<path d="M12620 5142 c0 -126 17 -147 195 -243 135 -73 155 -81 155 -66 0 26
-88 97 -180 147 -52 28 -99 55 -104 60 -4 4 -21 46 -37 92 l-28 83 -1 -73z"/>
<path d="M11020 5180 c0 -22 52 -256 61 -270 24 -42 -16 213 -41 260 -12 22
-20 26 -20 10z"/>
<path d="M5368 5145 c-37 -86 -80 -204 -105 -295 -34 -120 -38 -276 -10 -386
18 -68 53 -142 63 -132 2 3 -3 47 -12 99 -27 160 -17 298 40 519 48 189 59
276 24 195z"/>
<path d="M13226 5026 c-34 -40 -46 -63 -28 -52 11 6 74 96 68 96 -2 0 -21 -20
-40 -44z"/>
<path d="M14116 5007 c-3 -12 -6 -34 -6 -48 0 -14 -9 -36 -20 -49 -24 -27 -26
-44 -5 -36 21 8 19 -10 -5 -34 -26 -26 -28 -72 -2 -63 13 5 12 1 -5 -16 -13
-12 -23 -33 -23 -46 0 -27 9 -32 28 -13 7 7 12 9 12 5 0 -4 -10 -17 -21 -28
-20 -20 -21 -28 -15 -116 13 -181 59 -308 109 -301 26 3 25 -14 4 228 -9 96
-15 191 -14 210 2 66 -16 321 -23 325 -4 3 -10 -5 -14 -18z"/>
<path d="M15570 4831 c35 -66 390 -395 407 -378 19 19 -108 151 -267 280 -169
136 -156 127 -140 98z"/>
<path d="M11623 4745 c3 -11 30 -77 61 -146 85 -196 131 -358 137 -489 l3 -54
-34 -2 c-19 0 -56 -4 -82 -8 -32 -5 -48 -4 -48 3 0 6 7 11 15 11 44 0 -21 151
-112 258 -48 56 -55 61 -49 37 9 -34 96 -194 133 -243 14 -18 22 -36 19 -39
-3 -3 -33 0 -66 7 -96 20 -217 8 -333 -33 -54 -19 -100 -30 -103 -25 -8 12
-11 10 78 38 42 13 75 27 71 33 -7 12 -128 -1 -168 -17 -16 -7 -36 -20 -44
-29 -12 -15 -11 -17 8 -17 17 0 21 -6 22 -35 1 -19 2 -38 3 -42 1 -5 6 -28 10
-53 14 -85 29 -155 35 -162 3 -4 13 -3 21 2 12 7 12 23 2 107 -7 54 -15 110
-18 124 -6 26 -5 27 58 34 34 3 86 10 113 15 28 5 120 6 205 3 85 -2 181 -4
212 -4 55 1 58 0 63 -26 4 -16 13 -54 21 -86 9 -32 17 -66 19 -75 27 -112 33
-123 52 -97 18 25 17 130 -2 191 -9 27 -24 114 -35 194 -22 172 -55 278 -133
440 -50 104 -152 244 -134 185z"/>
<path d="M14720 4669 c12 -23 24 -39 26 -36 7 7 -28 77 -38 77 -5 0 1 -18 12
-41z"/>
<path d="M15419 4687 c29 -41 92 -109 96 -105 2 2 -23 33 -56 68 -34 36 -51
52 -40 37z"/>
<path d="M10140 4693 c-8 -3 -19 -12 -23 -19 -4 -8 -15 -14 -22 -14 -8 0 -15
-7 -15 -15 0 -23 24 -18 54 11 21 22 35 47 24 43 -2 0 -10 -3 -18 -6z"/>
<path d="M11920 4672 c0 -12 39 -46 45 -41 6 7 -24 49 -36 49 -5 0 -9 -4 -9
-8z"/>
<path d="M4015 4657 c3 -6 -16 -32 -41 -57 -67 -64 -157 -177 -246 -310 -355
-524 -437 -675 -446 -813 -6 -100 13 -137 92 -176 73 -36 81 -38 221 -55 211
-25 1293 -27 1490 -2 224 29 244 29 298 6 88 -38 299 -145 357 -182 84 -53
192 -105 270 -129 38 -11 70 -25 70 -29 0 -12 -58 -2 -188 32 -192 50 -298 67
-391 62 -73 -4 -162 -27 -150 -38 2 -2 38 -6 79 -9 70 -6 235 -27 235 -30 0
-1 5 -11 11 -22 20 -36 195 -73 515 -109 132 -15 437 -16 534 -2 112 17 426
113 449 137 13 13 -5 11 -244 -27 -203 -33 -194 -31 -275 -39 -47 -4 -112 -1
-190 10 -114 17 -159 29 -114 32 82 6 173 43 107 43 -22 0 -22 0 2 17 14 9 27
20 30 24 3 4 25 8 48 7 40 0 71 19 72 45 0 10 -24 9 -36 -2 -5 -6 -50 -3 -119
9 -229 38 -287 38 -144 0 41 -11 91 -25 111 -31 l37 -12 -62 -29 c-52 -25 -72
-29 -131 -27 -164 5 -268 41 -501 171 -123 69 -191 100 -292 134 l-108 37
-245 -1 c-707 -4 -1371 -3 -1434 3 -189 16 -311 53 -336 100 -16 29 -9 119 14
187 36 103 177 330 551 883 125 185 116 174 123 155 10 -27 107 -122 182 -178
118 -87 253 -190 279 -212 l24 -21 -65 -67 c-90 -93 -104 -110 -145 -171 l-36
-53 -51 5 c-53 6 -260 -19 -286 -34 -10 -6 1 -9 35 -11 28 -1 68 -3 90 -4 22
-1 71 -2 109 -3 56 -1 67 -4 62 -16 -6 -18 15 -20 31 -4 8 8 25 8 65 -1 67
-15 118 -30 140 -41 36 -18 231 -59 353 -73 72 -9 171 -21 220 -27 50 -7 268
-13 485 -15 217 -2 418 -5 445 -8 28 -3 76 -8 108 -11 77 -8 317 -58 437 -90
109 -30 142 -52 293 -197 98 -95 122 -138 77 -138 -38 0 -116 37 -195 92 -86
60 -156 98 -179 98 -8 0 -43 13 -78 29 -159 71 -141 47 50 -66 81 -47 164 -99
185 -116 65 -51 80 -102 53 -180 -9 -25 -10 -37 -3 -34 24 8 48 55 54 105 5
43 9 52 22 47 65 -25 136 -21 147 9 8 22 -13 79 -41 112 -14 16 -25 32 -25 35
0 4 17 18 38 31 21 14 63 50 93 80 79 79 87 82 178 69 42 -6 99 -13 126 -16
28 -3 93 -10 145 -16 52 -6 114 -8 137 -4 24 3 43 5 43 3 0 -2 -29 -48 -64
-101 -35 -53 -83 -141 -106 -194 -24 -54 -44 -100 -46 -102 -2 -2 -11 13 -19
35 -24 62 -55 114 -108 184 -51 66 -116 134 -123 127 -10 -9 211 -372 241
-397 13 -10 15 -8 15 13 0 13 6 30 14 36 26 22 145 209 197 310 l51 99 71 16
c131 30 114 36 -103 36 -113 0 -215 2 -227 4 -36 8 -254 28 -299 28 -23 0 -55
-7 -70 -15 -24 -13 -161 -159 -185 -199 -5 -7 -25 4 -60 36 -29 26 -72 59 -96
73 -24 13 -43 29 -43 33 0 7 -149 67 -280 113 -71 25 -199 55 -267 62 -35 4
-63 10 -63 13 1 20 40 50 70 55 19 3 91 15 160 27 111 18 269 57 325 81 26 10
92 17 235 24 185 9 248 16 370 41 63 14 126 22 140 19 14 -3 78 10 150 30 69
19 149 42 179 50 29 9 61 20 70 26 23 14 -140 0 -204 -18 -54 -15 -81 -19
-337 -58 -173 -26 -339 -39 -371 -29 -18 6 -18 6 0 20 10 7 33 14 51 14 40 0
44 27 6 36 -40 10 -173 -4 -197 -21 -23 -16 -87 -21 -87 -6 0 10 38 38 83 61
35 18 107 79 107 91 0 5 -26 -4 -59 -20 -32 -17 -61 -28 -64 -25 -2 3 -45 -13
-93 -34 -49 -22 -99 -43 -111 -46 -11 -4 -27 -14 -35 -23 -11 -14 -10 -15 12
-8 14 4 41 15 60 25 19 10 53 25 75 34 36 14 38 14 20 0 -41 -32 -136 -74
-168 -74 -29 0 -77 -11 -112 -26 -5 -2 -23 -13 -40 -24 -16 -11 -41 -25 -55
-32 -14 -7 -29 -18 -33 -25 -10 -15 -47 -17 -47 -3 0 6 10 15 23 21 12 6 38
19 57 30 42 23 22 26 -25 3 -38 -18 -85 -64 -65 -64 9 0 8 -6 -5 -20 -12 -13
-25 -18 -40 -14 -18 4 -32 -6 -71 -51 l-49 -57 -130 8 c-71 4 -222 9 -335 10
-231 3 -297 6 -323 18 -16 8 -27 7 -102 -9 -23 -5 -26 -4 -15 4 12 8 8 11 -17
11 -17 0 -35 -4 -38 -10 -13 -21 -45 -10 -51 18 -3 15 -8 33 -10 41 -2 8 -9
57 -14 110 -14 133 -62 295 -120 402 -18 34 -18 37 -2 53 21 22 -50 -15 -163
-84 -44 -27 -90 -49 -102 -50 -12 0 -42 17 -66 38 -83 70 -117 95 -199 152
-46 31 -126 91 -178 133 -90 73 -125 92 -115 64z m824 -427 c36 -154 49 -214
57 -265 10 -69 30 -133 45 -149 5 -6 9 -16 9 -24 0 -11 -13 -12 -67 -7 -58 6
-267 40 -298 49 -5 1 -30 8 -55 15 -25 6 -63 18 -85 26 -22 7 -59 19 -83 25
l-43 11 49 57 c27 31 79 99 116 150 37 50 72 90 77 87 17 -11 95 34 169 98
l75 65 7 -27 c3 -14 16 -64 27 -111z m1970 -221 c-28 -22 -29 -22 -49 -9 -13
9 -11 13 10 29 19 15 29 17 44 9 19 -10 18 -11 -5 -29z m-169 -9 c0 -5 -11
-12 -25 -16 -13 -3 -29 -12 -36 -20 -6 -8 -18 -14 -26 -14 -8 0 -21 -7 -29
-15 -9 -8 -25 -15 -37 -15 -22 1 -22 1 -3 15 11 8 25 15 32 15 6 0 17 7 24 15
7 8 19 15 27 15 8 0 21 7 29 15 17 17 44 20 44 5z m-210 -39 c0 -10 -26 -27
-87 -55 -17 -9 -33 -20 -35 -24 -4 -13 -48 -25 -48 -14 0 10 70 58 99 67 10 3
22 12 25 20 6 16 46 21 46 6z m-190 -111 c-20 -13 -33 -13 -25 0 3 6 14 10 23
10 15 0 15 -2 2 -10z"/>
<path d="M14760 4572 c0 -16 29 -95 51 -139 47 -93 219 -263 266 -263 8 0 -8
22 -35 49 -27 27 -62 66 -78 87 -16 22 -50 64 -75 95 -25 31 -61 82 -78 113
-31 54 -51 77 -51 58z"/>
<path d="M5360 4459 c0 -24 39 -152 50 -163 14 -14 13 -2 -10 83 -18 70 -40
114 -40 80z"/>
<path d="M12072 4434 c-13 -9 -29 -13 -37 -10 -46 17 36 -61 89 -85 58 -27 77
20 21 52 -20 12 -34 28 -33 37 4 22 -14 25 -40 6z"/>
<path d="M14520 4426 c0 -21 59 -86 89 -98 14 -6 79 -29 143 -52 114 -40 118
-42 148 -89 25 -39 43 -54 94 -77 35 -16 75 -32 90 -36 19 -4 34 -21 51 -55
14 -27 25 -50 25 -52 0 -2 -84 -7 -187 -10 -104 -4 -224 -11 -268 -16 -44 -5
-101 -12 -126 -15 l-45 -4 34 66 c37 72 104 252 93 252 -4 0 -15 -10 -25 -22
-19 -22 -20 -22 -27 -3 -4 11 -8 37 -8 57 -1 20 -5 39 -10 42 -22 14 -38 -10
-63 -92 -51 -164 -58 -195 -46 -209 8 -10 7 -17 -6 -26 -9 -7 -20 -25 -24 -41
-8 -28 -13 -31 -96 -47 -101 -19 -205 -18 -217 3 -6 10 -37 14 -131 16 -132 3
-376 20 -389 27 -4 3 -20 0 -35 -5 -22 -9 -29 -8 -36 5 -6 10 -24 15 -51 15
-24 0 -47 4 -52 9 -6 6 -27 12 -47 14 -20 2 -43 8 -50 14 -7 6 -29 13 -48 16
-83 14 -106 19 -125 27 -90 40 -206 40 -351 0 -294 -82 -386 -131 -551 -297
l-105 -104 -92 -5 -91 -5 -23 31 c-13 17 -29 29 -35 27 -7 -2 -47 29 -89 69
-42 40 -89 76 -103 80 -14 3 -25 8 -25 10 0 1 7 29 15 61 19 72 19 103 1 103
-17 0 -22 -15 -31 -92 l-6 -57 -93 0 c-127 0 -177 -24 -304 -145 -52 -50 -89
-92 -83 -94 6 -2 44 19 84 47 151 105 202 132 268 141 83 12 138 -1 219 -51
113 -70 176 -116 168 -124 -2 -2 -116 -6 -253 -9 -272 -6 -401 -14 -455 -26
-51 -11 -23 -17 130 -27 138 -10 846 -9 889 1 29 7 48 -3 30 -15 -24 -15 35
-10 82 7 24 8 94 19 154 25 61 5 130 12 155 16 42 7 38 8 -45 14 -49 4 -144 8
-210 9 -160 2 -168 6 -105 52 72 54 255 154 325 179 33 11 62 25 65 30 16 24
370 42 445 22 22 -6 76 -21 120 -32 89 -24 313 -57 420 -62 136 -6 331 2 465
21 74 10 209 22 300 25 90 4 171 8 180 10 8 1 51 6 95 10 44 4 89 9 100 11 11
2 58 7 105 9 47 3 121 10 165 15 44 6 105 10 135 10 34 0 64 6 76 15 18 14 17
14 -14 15 -59 0 -97 24 -132 82 -29 48 -41 57 -123 98 -69 34 -93 50 -95 67
-2 12 -13 28 -26 36 -12 8 -31 34 -41 58 l-20 44 -5 -32 -5 -31 -40 18 c-74
34 -170 76 -205 90 -19 7 -47 22 -62 32 -24 16 -28 17 -28 4z m-1270 -441
c-13 -16 -40 -20 -40 -7 0 14 12 22 33 22 16 0 17 -3 7 -15z m98 -17 c-3 -7
-15 -15 -28 -16 -21 -3 -22 -2 -11 12 16 19 44 21 39 4z m-728 -32 c0 -12 -41
-46 -55 -46 -15 0 -2 40 18 53 24 16 37 14 37 -7z m809 -6 c-14 -9 -29 -4 -29
10 0 12 34 18 39 7 2 -5 -3 -13 -10 -17z m111 -10 c0 -5 -12 -10 -26 -10 -14
0 -23 4 -19 10 3 6 15 10 26 10 10 0 19 -4 19 -10z m87 -16 c-3 -3 -12 -4 -19
-1 -8 3 -5 6 6 6 11 1 17 -2 13 -5z m-1187 -64 c0 -12 -49 -45 -56 -37 -6 6
36 47 48 47 4 0 8 -4 8 -10z"/>
<path d="M16020 4406 c0 -33 94 -132 200 -211 78 -58 156 -137 218 -219 32
-43 27 -13 -10 56 -38 72 -95 138 -162 187 -28 21 -91 75 -140 120 -90 82
-106 92 -106 67z"/>
<path d="M9132 4398 c7 -20 122 -23 138 -3 11 13 4 15 -65 15 -57 0 -76 -3
-73 -12z"/>
<path d="M7370 4354 c1 -42 35 -154 64 -213 35 -69 61 -94 52 -48 -3 12 -10
46 -16 75 -12 61 -54 154 -82 178 -10 10 -18 13 -18 8z"/>
<path d="M10275 4237 c-44 -22 -75 -42 -68 -44 7 -3 43 12 80 33 78 43 78 43
72 48 -2 2 -40 -14 -84 -37z"/>
<path d="M12140 4262 c0 -12 34 -42 48 -42 18 0 14 10 -10 31 -25 20 -38 24
-38 11z"/>
<path d="M10856 4173 c-79 -85 -82 -109 -6 -37 46 43 87 101 78 109 -2 1 -34
-31 -72 -72z"/>
<path d="M5190 4137 c0 -7 11 -35 24 -62 25 -56 95 -123 154 -150 20 -9 58
-27 84 -40 27 -13 50 -20 53 -14 8 12 -30 46 -106 94 -35 22 -97 72 -136 112
-40 40 -73 67 -73 60z"/>
<path d="M12010 4128 c0 -14 11 -56 25 -93 l26 -68 -50 7 c-43 6 -51 4 -60
-12 -8 -15 0 -28 47 -74 44 -43 70 -59 114 -72 63 -18 104 -21 113 -7 3 6 -3
14 -12 20 -16 9 -15 11 10 20 21 8 28 17 25 32 -2 17 -20 28 -77 49 l-74 27
-29 77 c-15 43 -35 87 -43 99 -15 21 -15 21 -15 -5z"/>
<path d="M13715 4103 c-16 -15 -16 -18 -1 -28 13 -10 7 -13 -36 -19 -29 -3
-68 -6 -85 -6 -18 0 -33 -4 -33 -10 0 -34 272 -45 395 -16 76 18 177 64 183
83 2 9 -5 10 -30 2 -47 -14 -151 -27 -165 -22 -7 3 -13 10 -13 17 0 7 -33 12
-99 14 -82 2 -102 -1 -116 -15z"/>
<path d="M15548 4055 c-2 -2 -24 -6 -49 -9 -63 -8 -140 -32 -164 -51 -19 -15
-18 -15 15 -10 124 21 265 23 473 8 60 -5 113 -5 119 -2 13 8 -95 41 -187 58
-52 10 -198 14 -207 6z"/>
<path d="M16055 3983 c6 -5 50 -20 99 -32 49 -12 127 -40 173 -61 46 -22 88
-40 93 -40 20 0 9 19 -31 54 -72 61 -121 79 -239 84 -66 2 -101 1 -95 -5z"/>
<path d="M16484 3824 c14 -55 35 -300 30 -353 -8 -94 -13 -113 -39 -147 -66
-86 -295 -129 -505 -94 -36 5 -112 17 -169 25 -56 8 -142 22 -190 31 -144 25
-259 42 -408 58 -197 22 -462 23 -321 1 24 -3 84 -13 133 -21 50 -8 101 -17
115 -19 14 -2 50 -9 80 -15 30 -6 114 -20 185 -31 140 -21 230 -35 480 -75 88
-14 198 -26 245 -27 202 -3 367 65 428 177 12 23 17 60 19 141 2 130 -15 243
-51 320 -26 58 -43 73 -32 29z"/>
<path d="M13070 3805 c-99 -19 -188 -69 -290 -164 -76 -70 -44 -67 84 10 161
96 233 113 381 89 82 -13 217 -44 295 -67 30 -9 62 -17 70 -18 8 -1 22 -5 30
-8 33 -13 250 -67 328 -81 106 -20 308 -31 397 -21 80 8 71 19 -25 29 -36 4
-114 15 -175 26 -60 11 -130 22 -155 25 -25 4 -115 25 -200 46 -433 112 -509
129 -584 135 -44 3 -85 7 -91 8 -5 1 -35 -3 -65 -9z"/>
<path d="M11119 3625 c-32 -50 -112 -500 -107 -603 l3 -67 24 49 c36 76 62
219 82 450 11 132 10 190 -2 171z"/>
<path d="M14615 3413 c177 -175 410 -383 431 -383 3 0 26 -18 51 -40 43 -37
197 -136 273 -175 19 -10 79 -53 132 -96 102 -83 168 -127 168 -112 0 16 -122
133 -279 268 -58 50 -137 119 -176 155 -93 84 -201 168 -189 148 5 -9 38 -46
73 -82 34 -36 61 -66 57 -66 -7 0 -130 92 -181 135 -96 82 -214 182 -241 205
-65 56 -207 161 -237 176 -20 10 23 -39 118 -133z"/>
<path d="M12886 3457 c69 -114 343 -526 356 -533 7 -5 9 0 5 15 -5 19 2 25 51
47 103 46 196 73 282 83 162 18 529 0 700 -34 50 -10 85 -16 110 -20 14 -2 50
-10 82 -19 31 -8 67 -17 80 -20 45 -9 126 -28 363 -86 368 -90 482 -114 463
-95 -7 7 -225 82 -288 99 -30 8 -100 26 -155 41 -399 107 -500 131 -705 165
-266 44 -620 46 -785 4 -63 -16 -142 -59 -186 -101 -15 -13 -29 -21 -32 -16
-2 4 -22 40 -43 78 -33 62 -65 113 -121 195 -45 65 -155 199 -169 204 -10 4
-13 2 -8 -7z"/>
<path d="M13823 3463 c15 -2 39 -2 55 0 15 2 2 4 -28 4 -30 0 -43 -2 -27 -4z"/>
<path d="M8326 3439 c-95 -9 -203 -36 -376 -94 l-105 -35 70 5 c39 4 124 20
190 37 66 16 131 31 145 33 14 2 101 11 193 21 109 12 161 21 148 26 -34 12
-169 16 -265 7z"/>
<path d="M13530 3380 c-79 -7 -145 -23 -170 -41 -12 -8 -11 -9 5 -5 11 2 61 7
110 11 94 6 148 2 813 -60 116 -11 63 11 -105 44 -272 52 -474 68 -653 51z"/>
<path d="M10286 3371 c29 -13 163 -25 144 -12 -8 5 -49 12 -90 15 -49 4 -68 3
-54 -3z"/>
<path d="M12265 3360 c-49 -4 -133 -11 -185 -15 -52 -4 -102 -8 -110 -10 -8
-1 -86 -8 -172 -16 -198 -16 -212 -34 -20 -26 161 7 529 43 622 62 l65 13 -55
-1 c-30 0 -95 -3 -145 -7z"/>
<path d="M6271 3248 c25 -13 70 -34 100 -47 172 -77 205 -94 235 -127 35 -37
38 -35 47 17 3 24 -3 31 -74 69 -89 47 -240 99 -308 106 l-46 4 46 -22z"/>
<path d="M3179 3178 c-173 -194 -330 -408 -299 -408 17 0 169 160 232 244 72
96 141 212 136 226 -2 6 -33 -22 -69 -62z"/>
<path d="M9958 3173 c6 -2 18 -2 25 0 6 3 1 5 -13 5 -14 0 -19 -2 -12 -5z"/>
<path d="M12448 3175 c-2 -1 -55 -5 -118 -9 -63 -4 -279 -18 -480 -31 -201
-14 -372 -25 -380 -25 -12 0 -13 -2 -1 -9 7 -5 48 -7 90 -5 117 6 447 25 526
30 113 8 499 45 510 49 6 2 -25 4 -67 3 -43 0 -79 -2 -80 -3z"/>
<path d="M5327 3120 c-13 -31 -22 -110 -18 -162 2 -36 19 -17 35 40 17 63 19
105 6 137 -7 18 -9 17 -23 -15z"/>
<path d="M6678 3123 c6 -2 18 -2 25 0 6 3 1 5 -13 5 -14 0 -19 -2 -12 -5z"/>
<path d="M10145 3039 c-126 -3 -340 -10 -475 -13 -135 -4 -254 -9 -265 -11
-11 -2 -45 -4 -75 -5 -42 0 -51 -3 -38 -11 37 -21 427 -26 768 -8 68 3 386 42
403 49 25 10 21 10 -318 -1z"/>
<path d="M11330 3003 c-62 -4 -228 -31 -268 -44 -43 -14 -31 -30 16 -23 35 6
365 7 1152 4 201 -1 403 1 450 5 101 6 204 15 239 21 91 14 158 28 170 34 13
7 -1651 9 -1759 3z"/>
<path d="M4535 2975 c-11 -2 -69 -9 -130 -15 -122 -13 -295 -39 -306 -46 -4
-2 -43 -9 -86 -15 -43 -6 -105 -14 -138 -19 -130 -19 -202 -27 -355 -35 -52
-3 -106 -7 -120 -10 -14 -2 -70 -7 -125 -10 -162 -10 -375 -45 -375 -62 0 -7
536 4 548 11 4 2 59 7 122 10 63 4 135 9 160 12 25 3 52 5 60 5 8 0 47 5 85
11 39 5 86 12 105 14 19 3 85 14 145 26 61 11 124 22 140 24 17 2 75 10 130
18 98 15 169 19 510 32 94 3 176 9 184 14 26 14 -144 32 -339 35 -107 2 -204
2 -215 0z"/>
<path d="M13625 2950 c-38 -11 -89 -24 -113 -29 -23 -5 -52 -17 -64 -27 -30
-27 -56 -92 -64 -158 l-7 -57 -36 5 c-20 3 -72 8 -116 11 -44 3 -102 8 -130
10 -27 2 -97 6 -155 9 -58 4 -136 8 -175 11 -67 5 -137 8 -445 19 -266 11
-707 21 -800 19 -137 -3 -266 -31 -214 -46 46 -13 215 -27 409 -33 116 -3 255
-7 310 -9 55 -2 185 -5 288 -6 221 -3 326 -16 141 -18 -66 0 -196 -4 -288 -8
-163 -6 -166 -7 -160 -27 3 -12 16 -31 28 -44 l21 -23 515 5 c283 3 539 8 568
12 58 7 74 23 53 55 -6 11 -8 19 -4 19 5 1 36 2 70 4 35 1 61 0 58 -2 -2 -3 0
-13 6 -24 14 -26 49 -20 189 33 178 68 243 80 450 86 145 4 228 1 385 -15 110
-12 245 -23 300 -26 164 -9 536 -36 595 -42 69 -8 60 4 -17 21 -32 8 -76 18
-98 24 -50 13 -451 85 -562 101 -77 12 -82 14 -85 38 -4 34 -30 40 -208 47
-74 3 -164 8 -200 12 -55 5 -61 7 -40 15 14 5 45 7 70 4 25 -3 117 -8 205 -12
88 -3 174 -8 190 -9 168 -20 264 -44 615 -156 91 -29 167 -54 170 -54 3 -1 19
-7 35 -14 37 -15 255 -78 301 -87 19 -3 34 -4 34 0 0 8 -56 36 -114 56 -28 9
-71 27 -96 38 -60 29 -163 66 -290 107 -58 19 -148 48 -200 65 -265 85 -458
109 -940 115 -291 4 -320 3 -385 -15z m1 -57 c-4 -4 -33 -17 -64 -28 -55 -20
-57 -22 -75 -75 -17 -53 -50 -100 -63 -88 -10 10 52 160 70 170 30 17 146 35
132 21z"/>
<path d="M5326 2876 c-57 -97 -181 -142 -416 -151 -85 -3 -175 -7 -200 -10
-25 -2 -81 -6 -125 -10 -44 -3 -107 -10 -140 -15 -33 -6 -136 -10 -230 -10
-93 0 -213 -5 -265 -10 -191 -21 -519 -40 -685 -40 -142 0 -422 16 -433 26 -2
1 4 16 13 34 9 17 14 37 12 43 -2 7 -16 -11 -30 -39 -26 -51 -26 -51 -82 -57
-31 -3 -63 -11 -71 -18 -24 -20 -12 -52 26 -71 19 -9 40 -21 45 -25 6 -4 19
-9 30 -11 11 -1 45 -7 75 -13 55 -11 666 -14 765 -4 28 3 160 10 295 15 310
13 1021 84 1213 121 54 10 113 19 130 19 70 0 159 96 161 173 1 46 -25 97 -48
97 -8 0 -26 -20 -40 -44z"/>
<path d="M10958 2873 c-37 -56 -43 -86 -23 -106 23 -24 90 -39 143 -33 26 3
74 8 107 12 33 4 69 10 80 14 17 6 14 9 -15 13 -19 3 -71 8 -115 11 -44 3 -94
8 -112 12 -31 6 -32 8 -35 62 l-3 56 -27 -41z"/>
<path d="M4110 2763 c-259 -15 -655 -64 -673 -82 -14 -14 141 -14 273 0 52 5
124 12 160 14 36 3 88 9 115 15 28 5 107 16 177 25 176 23 207 34 88 32 -52
-1 -115 -3 -140 -4z"/>
</g>
</svg>
