<?xml version="1.0" standalone="no"?>
<!DOCTYPE svg PUBLIC "-//W3C//DTD SVG 20010904//EN"
"http://www.w3.org/TR/2001/REC-SVG-20010904/DTD/svg10.dtd">
<svg version="1.0" xmlns="http://www.w3.org/2000/svg"
width="500.000000pt" height="500.000000pt" viewBox="0 0 500.000000 500.000000"
preserveAspectRatio="xMidYMid meet">

<g transform="translate(0.000000,500.000000) scale(0.100000,-0.100000)"
fill="#928B81" stroke="white" stroke-width="1">
<path d="M2296 4662 c-48 -36 -133 -134 -146 -167 -5 -14 -10 -57 -10 -94 0
-56 -4 -71 -21 -87 -18 -16 -20 -28 -17 -88 4 -64 6 -70 41 -102 25 -23 47
-34 67 -34 22 0 33 -7 44 -28 8 -15 23 -36 35 -46 15 -14 21 -31 21 -61 0 -74
-10 -103 -48 -131 l-35 -27 -69 18 c-75 19 -138 16 -188 -10 -50 -26 -78 -19
-126 30 -37 39 -49 45 -84 45 -22 0 -40 3 -40 8 0 4 15 7 33 7 27 0 32 4 35
27 2 18 14 34 35 47 18 11 40 33 50 50 10 17 24 31 31 31 27 0 59 49 63 97 9
92 -63 250 -151 331 -57 52 -95 60 -164 33 -66 -26 -93 -26 -125 -1 -16 13
-40 20 -67 20 -39 0 -48 -6 -119 -75 -42 -41 -93 -81 -114 -90 -21 -9 -37 -22
-37 -32 0 -30 52 -85 103 -108 56 -26 67 -38 67 -77 0 -20 -7 -28 -30 -37 -38
-13 -38 -34 -1 -76 19 -22 30 -48 35 -83 4 -32 16 -62 30 -79 22 -26 25 -26
63 -15 77 23 83 9 23 -49 -22 -22 -40 -48 -40 -59 0 -26 -18 -26 -120 5 -46
14 -100 25 -119 25 -44 0 -95 -30 -119 -70 -10 -16 -34 -40 -53 -53 -71 -48
-114 -153 -107 -262 3 -50 12 -75 48 -140 61 -105 124 -175 159 -175 15 0 33
6 40 13 10 10 11 3 5 -33 -5 -27 -16 -51 -29 -61 -11 -10 -48 -50 -80 -89 -34
-41 -77 -81 -100 -92 -61 -31 -103 -66 -121 -99 -8 -17 -28 -105 -44 -197 -17
-92 -34 -185 -39 -207 -6 -22 -6 -44 -2 -48 16 -16 188 -84 256 -102 39 -10
71 -19 72 -20 1 0 -5 -23 -13 -50 -10 -31 -14 -71 -11 -106 4 -44 1 -61 -14
-80 -31 -40 -34 -84 -10 -124 19 -33 20 -38 6 -65 -41 -80 8 -186 95 -205 28
-6 29 -8 15 -29 -26 -40 -30 -108 -8 -157 l20 -44 -23 -51 c-17 -40 -37 -62
-88 -99 -35 -26 -69 -60 -75 -74 -5 -14 -17 -141 -25 -281 -9 -140 -19 -270
-21 -288 -3 -29 1 -35 38 -59 60 -38 203 -99 265 -112 90 -19 243 -14 341 11
103 27 342 143 355 173 8 19 17 20 145 17 107 -2 151 1 208 15 l71 19 63 -38
c217 -131 474 -141 746 -29 49 20 73 26 76 17 6 -15 123 -52 207 -65 147 -24
338 -9 470 37 50 17 55 22 60 52 4 28 11 35 44 47 94 32 135 93 97 144 -31 42
-26 69 25 129 86 100 87 145 9 230 -62 68 -66 86 -30 145 14 23 25 55 25 75 0
40 -32 76 -127 144 -29 21 -53 40 -53 43 0 3 11 18 25 34 80 96 52 248 -82
452 -25 37 -44 69 -42 71 2 1 35 11 73 21 l68 18 -6 56 c-4 31 -20 129 -36
218 -17 90 -30 174 -30 188 0 39 18 65 43 64 17 -1 18 -2 5 -6 -31 -8 -32 -52
-5 -197 15 -78 32 -175 38 -216 7 -41 15 -79 19 -83 3 -4 49 14 101 40 114 58
117 65 63 185 -37 80 -38 87 -39 198 -1 125 -12 166 -58 209 l-26 24 41 21
c63 32 83 66 83 139 0 48 -8 80 -34 142 -32 74 -35 90 -41 220 -6 128 -9 145
-35 200 -40 80 -180 221 -260 260 -112 55 -234 40 -278 -35 -10 -16 -21 -30
-25 -30 -10 0 -72 109 -72 125 0 8 5 25 11 39 10 21 15 23 40 14 51 -18 81 6
107 87 12 39 33 80 47 93 14 12 25 27 25 31 0 5 -18 31 -40 57 -22 27 -40 55
-40 62 0 8 11 27 25 44 14 16 25 40 25 53 0 12 12 43 26 69 31 56 45 163 23
177 -8 4 -23 6 -35 3 -12 -3 -47 2 -79 11 -58 17 -189 17 -227 1 -15 -7 -18
-3 -18 23 0 37 -23 50 -48 28 -9 -8 -32 -22 -49 -31 -19 -9 -35 -27 -39 -42
-4 -13 -19 -31 -34 -39 -15 -8 -43 -34 -60 -57 -18 -24 -50 -60 -71 -80 -39
-38 -44 -68 -10 -68 14 0 16 -10 14 -67 -4 -88 22 -168 54 -168 30 -1 61 -32
73 -73 8 -32 6 -37 -20 -62 -17 -16 -30 -38 -30 -49 0 -12 -11 -33 -25 -46
-31 -32 -94 -34 -133 -5 -47 35 -93 36 -188 5 l-85 -28 -42 31 c-31 22 -44 39
-50 68 -13 60 -3 125 26 170 22 36 29 41 53 36 34 -6 85 21 107 56 28 49 27
138 -3 170 -16 17 -20 35 -20 86 0 84 -9 105 -76 182 -85 97 -97 102 -241 102
-116 1 -123 -1 -157 -26z m-763 -177 c29 -20 48 -19 127 6 64 21 67 21 104 4
93 -44 206 -273 182 -369 -6 -26 -31 -56 -47 -56 -5 0 -9 15 -10 33 -1 29 -2
28 -10 -12 -11 -56 -29 -83 -73 -111 -25 -15 -36 -29 -36 -46 0 -29 -37 -34
-47 -6 -4 9 -15 23 -25 30 -27 19 -23 42 7 42 53 0 92 34 109 95 3 12 19 28
35 38 18 11 36 34 47 62 15 40 15 49 3 73 l-13 27 -3 -35 c-5 -58 -13 -80 -33
-100 -27 -27 -36 -25 -43 8 -3 15 -30 54 -60 87 -30 33 -57 70 -61 83 -11 33
-26 16 -26 -29 0 -43 -20 -90 -53 -126 -30 -34 -35 -29 -24 26 14 65 -5 129
-50 176 -31 32 -63 49 -48 25 4 -6 -7 -10 -24 -10 -35 0 -36 2 -20 33 l12 22
-23 -20 c-26 -24 -51 -71 -75 -144 -14 -42 -20 -50 -27 -38 -11 21 -13 75 -4
105 4 13 3 22 -3 22 -18 0 -33 -67 -22 -104 6 -25 6 -36 -1 -36 -13 0 -88 74
-88 87 0 5 18 17 40 27 22 10 61 42 87 72 77 89 130 105 196 59z m1059 -20
c44 -28 47 -32 57 -90 6 -34 11 -73 11 -86 0 -31 11 -69 19 -69 3 0 18 21 33
45 15 25 34 45 42 45 44 0 47 -121 5 -166 -21 -22 -30 -25 -70 -22 -44 5 -48
3 -62 -26 -37 -79 -114 -135 -185 -136 -63 0 -139 57 -181 137 -8 16 -22 23
-53 25 -35 2 -46 9 -65 37 -30 45 -31 113 -3 141 25 25 34 20 60 -31 35 -67
43 -52 56 93 5 63 11 81 30 99 l24 22 24 -26 c29 -31 80 -37 94 -10 6 10 16
14 26 10 27 -11 46 3 46 35 0 29 1 30 23 16 12 -8 43 -27 69 -43z m747 -37
c44 -44 38 -57 -8 -17 -22 19 -50 42 -63 51 l-23 17 31 -10 c17 -5 45 -24 63
-41z m288 -42 c2 -2 6 -29 9 -62 6 -55 4 -61 -20 -83 -36 -34 -33 -61 15 -121
l40 -51 -28 -27 c-20 -19 -33 -45 -42 -85 -9 -41 -19 -62 -37 -74 -22 -14 -28
-14 -72 2 -26 10 -73 31 -106 47 -32 16 -60 27 -62 25 -6 -5 73 -52 111 -67
16 -6 25 -16 23 -26 -4 -20 -7 -20 -135 22 -116 38 -144 61 -99 82 12 5 27 22
35 38 7 16 17 37 22 47 8 14 5 17 -16 17 -43 0 -65 33 -65 95 0 63 23 98 60
88 27 -7 41 -35 54 -107 22 -123 66 -57 66 99 0 94 1 97 30 127 l31 30 92 -7
c50 -4 93 -8 94 -9z m-2104 -151 l38 -6 -3 -46 c-4 -58 10 -63 56 -22 29 25
39 29 51 19 11 -10 20 -8 41 9 15 12 32 21 39 21 49 0 67 -120 24 -166 -21
-22 -30 -25 -67 -21 -35 4 -42 2 -38 -10 3 -8 6 -23 6 -33 0 -10 6 -25 13 -32
25 -24 28 -86 7 -140 l-19 -50 32 6 c17 3 42 16 55 28 14 14 21 17 17 7 -8
-21 -51 -44 -109 -58 -40 -10 -51 -9 -65 2 -9 8 -23 16 -32 20 -11 3 -18 23
-22 58 -8 69 -16 76 -72 61 -24 -6 -51 -9 -59 -6 -15 6 -36 62 -36 97 0 23
-24 70 -44 86 -23 19 -20 27 15 41 28 12 30 16 26 49 -3 20 -8 48 -12 63 -7
26 -5 27 36 30 46 4 58 3 122 -7z m1079 -402 c8 -10 18 -39 20 -65 l5 -47 -46
-8 c-25 -4 -97 -8 -159 -8 -101 0 -115 2 -128 19 -21 30 -17 75 11 108 20 24
25 41 25 84 0 30 2 54 3 54 2 0 18 -7 36 -16 45 -22 138 -15 177 13 l29 22 6
-69 c3 -41 12 -76 21 -87z m-404 -55 c73 -35 162 -169 192 -291 17 -64 9 -153
-18 -207 -34 -70 -153 -186 -180 -175 -11 4 1 22 45 68 85 88 115 152 121 253
5 93 -10 152 -58 228 -42 66 -56 48 -15 -20 41 -67 59 -149 52 -223 -9 -87
-89 -232 -114 -208 -2 2 2 28 8 57 7 31 9 98 7 156 -4 90 -9 111 -37 168 -39
79 -76 109 -138 110 -38 1 -48 -4 -67 -26 -16 -20 -31 -28 -54 -28 -41 0 -82
-38 -82 -77 0 -32 -7 -44 -35 -59 -16 -9 -21 -23 -23 -68 -2 -31 -7 -56 -12
-56 -6 0 -10 9 -10 19 0 10 -9 29 -19 42 -17 22 -22 23 -50 12 -29 -10 -31
-10 -31 11 0 37 48 166 80 216 33 52 92 90 139 90 33 0 51 -21 51 -62 1 -21 2
-21 11 -5 7 12 7 27 0 47 -10 29 -9 30 37 45 59 19 142 12 200 -17z m482 -9
c0 -4 -7 -9 -15 -13 -8 -3 -15 -1 -15 3 0 5 -3 17 -6 26 -6 15 -4 15 15 4 11
-8 21 -17 21 -20z m-420 5 c0 -8 -5 -12 -10 -9 -6 4 -8 11 -5 16 9 14 15 11
15 -7z m989 -84 c100 -85 111 -98 111 -127 0 -28 4 -33 24 -33 23 0 23 -1 10
-39 -40 -117 -38 -200 10 -340 15 -41 26 -92 26 -113 0 -48 -22 -94 -50 -101
-19 -5 -20 -1 -21 86 -1 51 -5 162 -9 247 -6 154 -6 154 -8 -91 l-2 -247 -37
9 c-21 5 -52 6 -68 3 -24 -4 -35 0 -54 20 -14 15 -43 31 -65 37 -83 22 -92 61
-32 129 17 19 37 49 45 67 9 22 22 34 41 38 29 6 59 34 79 72 17 33 14 125 -5
151 -9 13 -14 24 -12 25 2 1 20 18 41 37 31 29 39 32 47 20 8 -12 10 -10 10 8
0 33 -19 27 -67 -20 -54 -53 -67 -44 -69 51 -2 89 -17 133 -60 170 -19 17 -34
33 -34 36 0 21 52 -12 149 -95z m231 31 c31 -53 31 -55 12 -73 -18 -18 -19
-18 -45 31 -23 41 -26 54 -17 76 12 32 9 35 50 -34z m-227 30 c51 -22 131 -71
125 -76 -2 -2 -46 18 -98 45 -96 50 -110 66 -27 31z m536 -3 c23 -8 23 -9 -22
-38 -25 -16 -50 -38 -56 -49 -18 -32 -13 -36 10 -7 28 36 95 69 125 62 29 -8
182 -153 208 -197 l20 -34 -37 28 c-49 37 -111 64 -167 71 -51 7 -33 -5 37
-23 61 -17 134 -70 171 -125 31 -47 32 -51 32 -157 0 -103 2 -115 40 -214 45
-118 49 -165 20 -213 -28 -46 -96 -76 -139 -61 -23 8 -44 8 -76 0 -52 -13 -84
-4 -114 35 -30 39 -26 82 18 187 52 122 60 179 33 254 -11 32 -23 90 -26 130
-3 39 -11 84 -17 100 -26 69 -117 124 -178 107 -14 -4 -45 -8 -68 -9 -51 -2
-105 -40 -132 -93 -14 -28 -20 -70 -25 -178 -5 -124 -4 -149 13 -204 11 -34
33 -79 50 -100 l30 -38 -24 -22 c-18 -17 -30 -20 -55 -15 -24 5 -30 11 -25 23
20 49 16 99 -16 192 -43 126 -45 210 -5 328 21 62 38 94 69 125 l40 42 7 -25
c5 -18 9 -21 13 -10 2 8 11 33 19 55 8 24 27 48 47 62 51 35 65 29 36 -13 -14
-20 -25 -49 -24 -63 0 -22 2 -20 15 14 8 22 26 52 41 67 27 28 49 29 112 6z
m-2460 -13 c100 -29 134 -31 180 -6 50 27 85 12 106 -43 14 -35 14 -47 3 -80
-33 -100 -150 -106 -256 -15 -18 16 -37 29 -42 29 -25 0 -60 -26 -71 -54 -8
-17 -22 -38 -32 -46 -20 -17 -39 -86 -31 -113 3 -11 3 -39 -1 -63 -8 -57 -31
-58 -45 -1 -20 76 -22 82 -38 100 -41 46 -97 3 -96 -74 1 -56 24 -96 70 -118
36 -18 44 -28 44 -66 0 -19 7 -35 20 -43 30 -19 25 -42 -9 -42 -36 0 -80 50
-147 167 l-45 78 3 85 c3 70 9 94 32 136 55 101 113 116 182 48 37 -38 46 -32
14 8 -10 14 -33 31 -50 38 -34 14 -37 26 -12 57 38 49 100 54 221 18z m410
-48 c-18 -15 -98 -54 -93 -46 9 15 67 49 83 49 8 0 12 -1 10 -3z m854 -43 c-9
-28 -14 -66 -11 -99 4 -47 2 -55 -18 -65 -46 -25 -57 -104 -24 -178 15 -33 29
-46 65 -62 25 -11 45 -26 45 -34 0 -8 16 -35 35 -60 19 -26 35 -56 35 -69 0
-20 -2 -19 -19 9 -48 79 -123 108 -267 102 l-100 -3 31 45 c42 58 55 100 55
170 0 67 -21 143 -62 224 l-29 58 78 -6 c64 -5 116 -2 195 13 4 0 0 -20 -9
-45z m-495 27 c19 -12 -12 -23 -42 -15 -16 4 -25 0 -30 -11 -6 -16 -26 -12
-26 6 0 21 73 36 98 20z m-28 -41 c9 -5 19 -5 27 2 23 19 62 -8 83 -55 30 -71
34 -88 16 -81 -9 4 -24 0 -33 -7 -14 -13 -13 -15 18 -19 30 -4 34 -9 37 -38 3
-30 2 -32 -21 -26 -25 6 -67 -23 -67 -46 0 -17 17 -11 32 11 11 17 19 20 37
14 23 -7 23 -10 16 -69 -5 -33 -9 -80 -10 -103 -1 -48 -19 -73 -84 -115 -53
-33 -114 -37 -168 -11 -35 16 -110 98 -152 166 -15 25 -30 37 -45 37 -34 0
-61 35 -61 80 0 48 20 73 46 59 10 -5 19 -15 19 -22 0 -7 7 -23 16 -35 24 -35
44 -12 44 50 0 43 4 54 30 78 19 17 30 38 30 54 0 15 11 38 24 51 22 22 32 24
75 20 28 -3 53 0 56 5 8 12 16 12 35 0z m982 -10 c36 -28 67 -106 74 -189 7
-73 19 -91 30 -43 14 64 21 77 40 74 30 -5 44 -32 44 -82 0 -56 -34 -113 -69
-118 -19 -3 -22 0 -16 17 5 15 2 21 -9 21 -10 0 -16 -9 -16 -22 0 -36 -45
-120 -81 -154 -43 -39 -106 -64 -163 -64 -97 0 -200 88 -229 197 -12 45 -27
58 -27 23 0 -27 -26 -25 -55 4 -31 31 -44 110 -24 145 25 44 43 37 63 -24 19
-62 41 -76 30 -19 -5 26 1 58 22 120 33 100 55 129 93 120 65 -16 167 -17 206
-2 53 19 58 19 87 -4z m-1700 -37 c25 -23 22 -34 -7 -27 -14 3 -32 1 -40 -6
-8 -7 -20 -8 -29 -3 -14 8 -14 11 0 31 18 26 50 28 76 5z m2421 -18 c39 -25
67 -92 67 -158 0 -33 9 -84 22 -119 25 -74 27 -158 3 -194 -21 -33 -132 -114
-156 -114 -10 0 -23 10 -30 21 -6 12 -14 18 -18 13 -10 -14 -82 -9 -92 7 -7
11 -9 10 -9 -6 -1 -35 -65 48 -84 109 -14 45 -16 77 -10 197 9 204 33 241 164
264 70 12 102 7 143 -20z m-2331 -39 c21 -9 50 -16 66 -16 l28 0 -4 -162 c-3
-144 -6 -168 -25 -208 -31 -63 -90 -93 -169 -87 -89 8 -198 84 -198 138 0 31
-30 69 -54 69 -21 0 -54 47 -62 86 -8 46 2 81 27 95 30 16 46 -3 67 -81 18
-67 42 -94 64 -72 8 8 15 51 18 107 6 108 24 141 71 131 16 -3 32 0 37 7 14
17 90 13 134 -7z m137 -101 c0 -38 -6 -88 -14 -110 -12 -38 -13 -34 -14 76 -1
64 2 119 6 122 14 15 23 -20 22 -88z m206 -186 c4 -10 24 -41 46 -69 44 -56
47 -65 20 -80 -33 -17 -51 -12 -51 15 0 22 -4 25 -34 25 -46 0 -52 13 -26 57
l21 36 -21 22 -20 22 30 -5 c17 -2 32 -12 35 -23z m-434 -201 c54 -1 59 -3 59
-23 0 -13 -10 -29 -22 -37 -13 -9 -39 -32 -59 -52 l-35 -37 -58 22 -58 23 6
35 c3 20 6 55 6 79 l0 42 51 -25 c36 -19 67 -26 110 -27z m842 26 c-5 -15 -16
-18 -26 -8 -10 11 4 33 18 28 8 -3 11 -12 8 -20z m557 17 c0 -5 3 -16 6 -25 3
-9 2 -16 -4 -16 -5 0 -12 11 -14 25 -3 14 -1 25 3 25 5 0 9 -4 9 -9z m-612
-66 c-2 -1 -47 -5 -100 -8 l-98 -6 0 30 c0 27 2 30 23 22 35 -13 109 -8 142
10 l30 15 3 -30 c2 -16 2 -31 0 -33z m882 20 c0 -26 -9 -45 -37 -76 -30 -34
-37 -49 -41 -95 -4 -46 -1 -61 17 -85 18 -24 21 -38 17 -85 -4 -47 -11 -63
-37 -91 -38 -38 -49 -40 -73 -14 -15 16 -25 80 -26 170 0 14 -14 37 -34 55
-37 35 -57 78 -34 74 10 -2 12 16 10 86 -3 83 -2 88 15 81 37 -16 147 -17 183
-1 19 8 36 15 38 16 1 0 2 -16 2 -35z m-1176 -17 c-4 -24 -11 -47 -17 -53 -6
-7 -8 -2 -3 15 3 14 6 37 6 53 0 15 5 27 10 27 6 0 8 -16 4 -42z m1980 -35
c-25 -63 -30 -122 -13 -155 9 -17 7 -25 -12 -44 -13 -13 -42 -31 -63 -39 l-40
-17 32 36 c26 30 32 45 32 84 0 29 -8 59 -20 79 l-20 33 38 20 c20 10 48 28
62 39 14 12 26 21 26 21 1 0 -9 -26 -22 -57z m-1921 -4 c-8 -16 -17 -48 -20
-69 -6 -42 -6 -41 89 -128 50 -45 72 -104 61 -167 l-9 -50 -29 73 c-30 77 -67
119 -114 129 -20 4 -33 20 -57 70 l-31 64 59 54 c33 30 61 55 63 55 2 0 -3
-14 -12 -31z m851 -27 c-6 -14 -8 -13 -14 8 -4 14 -2 31 4 39 9 12 12 10 14
-8 2 -12 0 -30 -4 -39z m-1628 -13 c-48 -53 -56 -78 -32 -98 7 -6 16 -26 20
-44 4 -17 22 -58 42 -90 l35 -57 -22 -38 c-30 -50 -29 -49 -44 -29 -9 13 -10
28 -4 55 15 66 13 74 -20 67 -32 -7 -26 -17 -66 125 -4 13 117 160 132 160 3
0 -16 -23 -41 -51z m35 8 c-9 -11 3 -19 58 -41 l68 -27 -23 -57 c-13 -31 -24
-65 -24 -74 0 -10 -5 -18 -10 -18 -10 0 -140 130 -140 141 0 7 70 89 77 89 3
0 0 -6 -6 -13z m1512 -49 c61 -161 43 -303 -53 -412 -97 -110 -260 -99 -350
25 -52 73 -73 143 -66 229 5 72 28 162 49 188 7 9 61 12 207 12 l197 0 16 -42z
m955 -42 c23 -25 42 -49 42 -52 0 -4 -17 10 -37 32 -21 22 -54 52 -73 67 -34
27 -34 27 -4 13 16 -8 49 -35 72 -60z m-488 46 c-14 -9 -45 -37 -69 -62 -24
-25 -39 -36 -33 -24 15 28 99 104 114 103 7 0 2 -7 -12 -17z m-1044 -57 c-11
-8 -31 -15 -45 -14 -22 1 -19 3 14 14 52 17 54 17 31 0z m-1066 -33 c0 -10 7
-42 15 -70 14 -45 19 -52 42 -52 24 0 25 -1 18 -46 -5 -35 -2 -51 11 -72 11
-17 17 -42 15 -69 -2 -31 6 -57 28 -100 17 -32 31 -70 31 -84 0 -24 -68 -141
-89 -154 -10 -5 -123 23 -133 33 -3 4 6 70 22 147 16 77 29 153 30 169 0 27
-58 171 -66 163 -2 -2 10 -36 27 -75 l30 -72 -32 -158 c-18 -86 -34 -159 -36
-161 -4 -6 -134 47 -155 63 -16 11 -16 17 -2 76 8 36 24 120 35 189 11 69 26
139 33 155 17 40 61 81 108 100 20 9 39 20 43 26 10 16 25 11 25 -8z m564 -22
c36 -17 81 -31 108 -32 l48 -3 11 -55 c38 -183 -70 -360 -220 -360 -41 0 -57
6 -93 33 -94 72 -135 190 -112 328 6 33 10 37 54 48 27 7 68 25 92 41 23 16
45 29 47 29 2 1 31 -12 65 -29z m572 -58 c7 -40 17 -86 23 -104 15 -43 14 -48
-12 -48 -75 0 -127 181 -64 222 28 19 41 2 53 -70z m638 56 c38 -54 2 -182
-57 -202 -14 -5 -29 -8 -31 -5 -3 3 2 28 10 56 11 39 19 50 30 46 11 -4 14
-13 10 -29 -9 -32 11 -31 26 2 10 22 10 28 -6 40 -18 12 -18 15 -2 39 15 22
15 25 1 25 -9 0 -23 -15 -31 -32 l-14 -33 6 50 c4 28 8 53 11 58 8 14 32 7 47
-15z m-1587 -99 c-14 -23 -22 -18 -57 44 -42 73 -37 79 19 23 42 -41 48 -51
38 -67z m681 47 c30 -16 29 -13 101 -170 l51 -109 0 -113 0 -114 -34 0 c-19 0
-41 -3 -50 -6 -18 -7 -56 61 -56 101 0 14 14 53 31 86 43 82 38 123 -30 234
-64 106 -66 119 -13 91z m1905 -11 c-5 -16 -72 -55 -93 -55 -5 0 -10 5 -10 10
0 6 6 10 13 10 7 0 28 11 47 25 41 28 52 31 43 10z m-303 -6 c35 -5 66 -12 69
-15 11 -11 12 -174 1 -261 -17 -134 -36 -166 -127 -212 -84 -42 -202 -15 -269
61 -25 29 -33 50 -43 112 -14 97 -15 293 0 301 36 23 262 32 369 14z m-2190
-101 c0 -16 -3 -18 -13 -9 -11 9 -14 3 -15 -27 -2 -38 12 -72 23 -60 4 3 1 16
-5 28 -8 15 -8 26 -2 32 11 11 15 1 27 -59 5 -28 4 -31 -13 -26 -11 2 -26 16
-33 30 -18 34 -18 102 1 113 19 12 30 3 30 -22z m768 2 c-3 -16 -1 -30 4 -30
4 0 8 6 8 13 1 8 5 7 13 -4 22 -29 64 -50 88 -45 20 5 30 -3 62 -53 45 -72 47
-94 7 -111 -36 -15 -43 -35 -38 -106 3 -50 1 -56 -23 -71 -24 -15 -30 -14 -71
1 l-45 18 -6 121 c-4 67 -11 148 -16 180 -11 62 -5 117 11 117 6 0 8 -13 6
-30z m-260 8 c17 -17 15 -89 -4 -116 -8 -12 -24 -22 -34 -22 -17 0 -18 4 -10
26 6 14 10 37 10 52 0 19 3 23 9 13 5 -7 6 -22 3 -34 -3 -12 -1 -18 5 -14 6 4
13 25 15 46 3 31 1 37 -9 29 -10 -8 -13 -5 -13 11 0 24 10 27 28 9z m1008
-183 c-3 -71 -6 -146 -6 -166 0 -36 -1 -37 -47 -43 -96 -14 -88 -19 -85 55 3
62 1 68 -24 88 -15 11 -33 21 -41 21 -23 0 -8 43 32 96 19 25 35 49 35 52 0 4
17 7 37 8 27 0 43 8 62 30 25 28 26 29 35 9 4 -11 5 -78 2 -150z m-373 -58
c32 0 68 8 95 21 45 22 46 21 35 -42 -5 -32 -12 -41 -42 -53 -44 -19 -133 -20
-184 -4 -37 12 -37 13 -37 66 l0 52 41 -20 c25 -12 61 -20 92 -20z m-757 -156
c19 -17 39 -31 44 -31 11 0 14 -120 4 -168 -7 -32 -44 -56 -52 -33 -10 30 -72
98 -107 118 -43 25 -106 30 -151 12 -16 -5 -39 -8 -51 -4 -32 8 -32 58 0 72
51 24 87 64 87 98 l0 33 58 -5 c38 -3 69 0 92 9 l35 15 3 -43 c2 -34 10 -49
38 -73z m1391 -26 c30 -58 42 -68 61 -52 11 8 13 27 9 69 l-5 57 24 -17 c20
-15 23 -25 24 -79 0 -52 -4 -66 -25 -90 l-25 -28 -22 30 c-12 17 -38 44 -56
62 -32 30 -35 37 -38 105 l-4 73 15 -40 c9 -22 27 -62 42 -90z m-955 -16 c20
-10 45 -30 57 -45 11 -14 25 -23 30 -20 13 9 62 -12 89 -37 36 -33 63 -93 69
-152 5 -52 5 -54 -26 -69 -29 -16 -32 -16 -37 1 -23 75 -53 119 -116 174 -83
71 -131 89 -176 65 -26 -13 -35 -28 -51 -84 -12 -37 -30 -80 -41 -97 -64 -92
-74 -125 -75 -230 0 -78 5 -117 24 -177 24 -80 49 -108 37 -42 -4 19 -9 41
-12 48 -3 7 18 -8 46 -34 27 -27 50 -52 50 -57 0 -5 25 -70 55 -144 73 -182
88 -244 83 -344 -4 -63 -13 -99 -43 -169 -32 -77 -36 -98 -32 -145 2 -31 8
-65 12 -75 8 -18 4 -19 -59 -14 -37 3 -70 9 -73 12 -4 3 -23 108 -43 233 -21
126 -44 244 -52 263 -8 20 -38 56 -66 81 l-51 46 23 74 c34 108 39 184 22 362
-11 109 -12 165 -5 184 5 14 7 52 3 84 -14 128 79 280 195 319 61 20 106 17
163 -11z m1218 2 c25 0 61 6 82 13 l36 13 4 -39 c3 -29 0 -39 -14 -44 -10 -3
-47 -37 -82 -76 l-65 -71 -46 13 c-25 7 -57 22 -71 33 -23 17 -24 21 -10 36
22 25 46 86 46 120 l0 29 38 -14 c20 -7 57 -13 82 -13z m-2014 -48 c-11 -11
-19 6 -11 24 8 17 8 17 12 0 3 -10 2 -21 -1 -24z m462 -14 c2 -30 -4 -60 -18
-89 -12 -25 -19 -34 -16 -20 3 14 6 56 6 93 0 50 3 68 13 65 6 -3 13 -25 15
-49z m557 26 c56 -26 139 -25 192 3 47 24 57 27 48 12 -16 -26 -86 -50 -145
-50 -60 0 -129 24 -146 51 -4 6 -3 10 2 7 5 -2 27 -13 49 -23z m-1055 -5 c0
-5 -5 -10 -11 -10 -5 0 -7 5 -4 10 3 6 8 10 11 10 2 0 4 -4 4 -10z m534 4 c13
-5 14 -9 5 -20 -13 -16 -29 -9 -29 12 0 16 2 16 24 8z m1736 -39 c22 -11 30
-23 30 -43 l1 -27 13 31 c29 65 118 67 190 4 46 -41 129 -164 174 -257 33 -70
37 -86 37 -160 0 -76 -2 -84 -33 -128 l-33 -47 23 -25 c13 -14 49 -43 80 -64
32 -22 62 -48 68 -59 17 -31 11 -73 -15 -115 -34 -55 -31 -79 13 -128 57 -63
72 -88 72 -123 0 -30 -8 -44 -77 -135 -38 -49 -42 -85 -12 -123 25 -32 19 -56
-22 -91 -31 -25 -75 -42 -86 -32 -3 3 3 84 13 179 18 172 18 173 53 211 l34
38 -19 36 c-46 87 -138 153 -215 153 -13 0 -41 5 -61 11 -55 15 -72 53 -63
142 6 63 10 72 42 100 36 32 83 116 83 149 0 10 13 24 30 33 29 15 60 60 60
88 0 8 -12 17 -28 20 -49 10 -83 47 -127 141 -47 98 -74 131 -117 141 -21 5
-33 1 -53 -19 l-26 -26 -26 20 c-14 11 -32 20 -39 20 -28 0 -67 -49 -117 -145
-47 -89 -58 -103 -103 -130 -50 -30 -51 -31 -39 -64 10 -31 49 -70 70 -71 6 0
19 -24 29 -52 11 -33 35 -70 62 -96 36 -37 44 -51 50 -98 8 -71 -2 -121 -29
-139 -13 -8 -55 -19 -95 -25 l-73 -10 -73 49 c-61 42 -106 86 -106 105 0 3 21
19 48 37 26 18 63 47 83 66 l36 35 -24 24 c-54 54 -67 137 -33 201 11 21 20
54 20 73 0 71 146 281 221 318 52 26 70 27 109 7z m-2213 -5 c25 -9 29 -15 25
-40 -5 -38 6 -39 19 -1 19 54 104 68 174 28 39 -22 105 -106 105 -133 0 -35
-179 4 -204 45 -4 6 -12 11 -18 11 -21 0 35 -50 80 -72 31 -15 65 -21 111 -22
63 -1 66 -2 88 -35 13 -19 23 -40 23 -47 0 -33 -22 -66 -54 -79 -31 -13 -35
-20 -38 -57 -4 -46 -4 -46 -35 50 -17 54 -18 62 -5 57 19 -7 102 5 102 15 0 4
-33 10 -72 12 -94 6 -158 38 -226 113 -29 31 -52 50 -52 42 0 -18 -68 -79
-128 -114 -24 -14 -76 -36 -115 -49 l-72 -24 53 3 53 2 -7 -30 c-4 -16 -10
-55 -14 -85 l-6 -55 -8 52 c-7 47 -12 55 -41 69 -47 22 -62 62 -40 107 28 59
44 68 131 70 59 2 90 9 122 25 63 33 51 44 -18 16 -38 -15 -79 -24 -114 -24
-63 0 -64 4 -13 79 45 67 123 95 194 71z m755 -26 c27 -14 29 -17 15 -31 -13
-13 -18 -13 -41 2 -24 16 -28 16 -44 3 -30 -26 -42 -30 -42 -14 0 23 36 56 60
56 12 0 35 -7 52 -16z m819 -95 c22 -11 59 -22 83 -25 42 -6 45 -8 55 -50 15
-57 14 -196 -1 -231 -25 -60 -100 -163 -133 -183 -88 -54 -152 -45 -230 35
-27 28 -63 76 -79 105 -26 48 -30 64 -28 125 3 115 13 175 28 175 25 0 119 47
164 82 l45 35 29 -24 c16 -13 46 -33 67 -44z m-845 45 c23 -16 26 -15 45 2 19
17 22 17 47 2 36 -21 89 -99 103 -151 6 -23 15 -53 21 -66 l9 -25 22 26 c30
35 56 42 78 22 34 -31 21 -124 -23 -171 -27 -28 -48 -29 -48 -3 0 11 -4 20
-10 20 -5 0 -10 -12 -10 -27 0 -68 -90 -178 -167 -204 -85 -28 -173 12 -239
106 -33 49 -36 59 -37 127 0 95 16 144 55 164 24 13 36 14 56 5 29 -14 40 -7
22 14 -7 8 -26 15 -41 15 l-29 0 25 47 c14 27 25 54 25 60 0 7 6 13 13 13 8 0
22 9 32 20 22 24 20 24 51 4z m1202 -64 c8 0 1 -21 -20 -60 -18 -33 -35 -60
-38 -60 -3 1 -14 9 -26 18 -16 14 -22 33 -26 84 l-6 66 52 -24 c28 -13 57 -24
64 -24z m392 40 c-8 -5 -24 -10 -35 -10 -17 0 -17 2 -5 10 8 5 24 10 35 10 17
0 17 -2 5 -10z m-127 -7 c-7 -2 -21 -2 -30 0 -10 3 -4 5 12 5 17 0 24 -2 18
-5z m180 -35 c13 -18 34 -60 47 -92 13 -33 37 -75 53 -93 l30 -34 -11 -80
c-18 -124 -63 -193 -157 -242 -64 -32 -95 -31 -171 7 -105 53 -143 117 -159
267 -6 54 -4 67 10 79 9 8 39 57 65 111 l49 96 53 -8 c32 -6 63 -5 78 1 14 5
36 11 50 13 14 2 28 5 32 6 4 0 18 -14 31 -31z m-1979 -17 l-7 -32 -24 23 -25
23 29 12 c15 6 29 10 31 9 1 -2 -1 -17 -4 -35z m-318 -37 c25 -25 69 -56 98
-69 48 -21 56 -29 72 -72 14 -35 19 -74 19 -143 0 -91 -1 -97 -33 -143 -79
-113 -142 -154 -208 -134 -58 17 -178 139 -194 197 -13 46 -9 229 5 262 4 10
33 32 65 49 32 17 72 46 91 65 18 19 35 34 37 34 2 0 24 -21 48 -46z m1109
-81 c14 -65 26 -119 31 -135 9 -31 -48 -23 -81 12 -50 52 -36 150 21 150 18 0
25 -7 29 -27z m661 2 c30 -46 -2 -139 -52 -151 -45 -12 -53 -1 -41 58 6 29 13
45 15 36 2 -10 8 -18 14 -18 5 0 7 -13 3 -32 -6 -31 -5 -32 10 -14 18 23 19
48 3 64 -8 8 -8 15 2 27 7 8 10 19 6 23 -4 4 -14 -2 -22 -12 -11 -16 -14 -17
-14 -4 0 52 47 66 76 23z m139 -194 c-9 -8 -55 46 -55 64 0 8 12 20 28 27 l27
13 3 -48 c2 -27 0 -52 -3 -56z m578 89 c15 -13 -22 -69 -45 -70 -5 0 -8 21 -8
46 0 42 1 45 23 39 12 -4 26 -11 30 -15z m-2813 -17 c0 -16 11 -59 24 -98 14
-38 22 -72 20 -74 -11 -12 -61 18 -81 48 -27 39 -29 80 -8 121 20 38 45 39 45
3z m628 -3 c21 -41 9 -107 -26 -142 -16 -17 -36 -28 -44 -26 -13 3 -13 9 1 50
12 35 19 45 30 39 10 -7 11 -13 1 -31 -9 -18 -9 -21 1 -18 24 8 35 36 22 57
-6 10 -9 29 -6 42 6 21 5 23 -10 10 -15 -12 -17 -10 -17 19 0 24 4 31 17 28
10 -2 23 -14 31 -28z m1469 -166 c7 -11 19 -26 27 -34 9 -7 16 -16 16 -20 0
-4 -34 -33 -75 -63 l-75 -56 0 29 c0 16 -11 42 -26 60 l-27 31 26 -6 c30 -8
42 7 43 55 2 57 23 118 42 122 13 3 19 -8 27 -47 6 -27 16 -59 22 -71z m-799
-62 c48 -81 66 -141 57 -193 -4 -22 -7 -39 -8 -39 -1 0 -40 13 -87 29 -99 33
-118 55 -127 145 -6 53 -4 57 32 97 20 23 44 58 52 78 l16 36 12 -43 c7 -23
31 -73 53 -110z m-648 68 c0 -25 -5 -30 -37 -39 -21 -6 -49 -11 -63 -10 -21 0
-17 4 19 20 25 11 51 29 58 39 19 27 23 25 23 -10z m1260 -74 c0 -5 -9 -1 -19
8 -11 10 -17 25 -14 33 5 12 9 10 19 -8 7 -13 13 -28 14 -33z m-1750 -112 c0
-28 -8 -53 -25 -78 -30 -44 -31 -49 -6 -41 17 5 22 -1 32 -37 10 -36 9 -51 -5
-89 -20 -59 -20 -66 2 -45 18 15 19 15 30 -9 19 -41 15 -99 -8 -120 -27 -24
-59 -10 -85 39 -19 35 -19 38 -3 50 20 14 14 26 -13 26 -25 0 -49 38 -49 78 0
19 12 60 26 92 25 56 25 58 8 91 -21 42 -23 103 -5 146 l13 32 44 -47 c36 -39
43 -54 44 -88z m497 121 c14 -39 -33 -275 -58 -291 -5 -3 -25 10 -44 29 -35
35 -35 35 -20 71 16 37 19 127 6 161 -7 18 -2 21 43 31 28 6 55 12 59 13 4 0
10 -6 14 -14z m1087 -40 c21 3 51 12 67 21 l29 15 0 -40 c0 -36 -4 -42 -47
-70 -55 -37 -72 -38 -130 -10 -37 18 -43 25 -43 52 0 18 -3 42 -6 54 -6 21 -6
21 43 -4 37 -19 57 -23 87 -18z m-1217 -48 c4 -36 0 -64 -11 -91 -15 -36 -15
-43 0 -81 20 -55 16 -101 -10 -97 -18 3 -17 2 2 -25 29 -42 36 -85 18 -127
-14 -33 -18 -36 -36 -26 -33 18 -61 71 -58 110 3 32 5 35 33 32 l30 -3 -29 24
c-24 20 -30 33 -34 80 -3 45 -1 58 11 63 13 5 12 11 -9 41 -13 20 -24 45 -24
55 0 11 21 44 48 73 53 59 60 57 69 -28z m1477 -97 c20 -37 36 -70 36 -72 0
-3 -18 -10 -40 -17 -21 -6 -41 -15 -44 -20 -3 -5 12 -33 34 -64 22 -30 40 -58
40 -61 0 -3 -28 -40 -63 -83 -111 -138 -223 -323 -195 -323 7 0 36 41 63 91
28 49 84 133 125 186 41 52 81 103 87 112 11 14 7 25 -22 69 -19 28 -35 55
-35 60 0 5 18 16 41 25 37 15 39 18 29 38 l-12 21 32 -18 c78 -46 91 -64 100
-139 14 -112 29 -322 31 -420 l2 -90 -54 -31 c-30 -17 -65 -35 -78 -39 l-23
-7 7 223 c6 208 8 225 27 242 15 12 16 17 6 17 -8 0 -23 -9 -34 -21 -17 -19
-19 -41 -22 -250 l-3 -228 -82 -27 c-45 -14 -107 -27 -137 -28 l-55 -1 -11
150 c-11 149 -10 151 17 252 15 57 51 172 79 255 38 111 54 174 57 228 5 71 4
77 -21 107 -48 56 -26 49 29 -10 29 -32 69 -89 89 -127z m-869 33 c9 -24 21
-43 26 -43 20 0 -81 -199 -106 -207 -5 -2 -18 25 -28 60 -10 34 -41 113 -68
175 -27 62 -49 114 -49 116 0 1 26 0 58 -2 45 -3 68 0 98 16 l39 20 6 -46 c4
-26 14 -66 24 -89z m448 110 c-29 -43 -21 -121 26 -276 23 -76 58 -182 78
-235 31 -86 36 -109 38 -202 1 -58 6 -150 10 -204 l8 -99 -89 6 c-49 4 -120
17 -159 29 l-70 23 -3 80 -2 80 55 42 c30 24 55 49 55 57 0 8 -16 38 -36 67
-52 76 -74 128 -73 174 l0 40 30 -35 c45 -52 166 -234 199 -301 16 -31 34 -61
40 -64 58 -36 -65 179 -206 361 l-63 82 40 57 c21 31 37 60 34 65 -3 5 -21 14
-40 20 -19 6 -35 15 -35 18 0 16 90 160 125 200 41 47 65 57 38 15z m973 -45
l56 21 -6 -59 c-8 -73 10 -122 53 -145 37 -19 46 -49 32 -103 -9 -31 -30 -58
-89 -113 l-77 -72 -6 42 c-3 23 -14 49 -24 59 -17 16 -17 16 -10 -3 13 -34 18
-85 7 -85 -5 0 -15 7 -22 15 -7 8 -43 24 -80 35 -73 22 -85 36 -95 113 -3 23
-8 54 -10 68 -4 24 0 28 29 33 18 4 44 18 57 32 21 23 24 34 22 103 l-1 78 54
-20 54 -20 56 21z m-2214 -65 c23 9 42 16 43 14 0 -1 8 -19 17 -39 22 -48 14
-104 -21 -141 -24 -26 -26 -37 -32 -146 -7 -136 -15 -159 -37 -110 -9 22 -14
62 -13 111 1 68 -1 77 -18 83 -52 16 -130 149 -111 186 6 10 11 34 12 52 l1
34 58 -30 c58 -30 59 -30 101 -14z m1058 -53 c-27 -20 -36 -19 -27 5 4 8 17
15 29 15 l23 0 -25 -20z m310 10 c0 -5 -6 -10 -13 -10 -8 0 -24 -22 -37 -50
-13 -27 -27 -50 -32 -50 -12 0 -10 6 12 49 28 57 70 92 70 61z m126 -50 c14
-21 24 -46 22 -56 -2 -12 -13 -1 -36 35 -18 29 -42 55 -53 58 -15 4 -17 8 -8
14 19 11 46 -7 75 -51z m-434 -5 c-4 -21 1 -27 32 -40 39 -17 39 -21 -2 -74
l-19 -24 -6 40 c-4 22 -16 51 -27 65 l-20 26 23 15 c12 9 23 16 23 16 1 1 -1
-10 -4 -24z m316 -207 c10 -87 15 -158 10 -158 -4 0 -8 8 -8 18 0 9 -7 71 -15
137 -13 109 -18 212 -9 175 2 -8 12 -86 22 -172z m-406 -34 c41 -55 61 -104
51 -132 -3 -9 -17 -46 -30 -81 -20 -50 -24 -78 -21 -123 2 -32 7 -60 11 -64 3
-3 22 4 41 16 l36 22 0 -66 c0 -46 -4 -66 -12 -66 -7 0 -37 16 -67 34 -46 29
-51 35 -34 40 19 6 20 11 11 49 -12 53 -4 103 27 178 33 77 32 97 -11 160 -48
71 -64 104 -63 126 0 11 5 6 11 -12 6 -16 28 -53 50 -81z m-1315 -133 c-15
-42 -27 -87 -27 -99 0 -12 16 -53 35 -91 25 -49 37 -89 42 -134 6 -67 -3 -177
-15 -177 -4 0 -7 51 -7 112 0 110 -1 115 -37 189 -21 41 -38 85 -38 98 0 12
12 50 26 84 15 34 27 79 28 100 1 34 2 35 10 16 8 -16 4 -40 -17 -98z m672
-14 c29 -68 26 -104 -16 -193 -35 -74 -37 -84 -36 -171 1 -104 -11 -124 -21
-35 -9 78 6 148 50 232 l37 70 -26 79 c-15 43 -27 94 -26 112 l1 34 8 -40 c5
-22 18 -62 29 -88z m-483 58 c-10 -8 -23 -12 -29 -8 -5 3 1 12 14 19 30 15 41
7 15 -11z m309 15 c3 -5 2 -10 -4 -10 -5 0 -13 5 -16 10 -3 6 -2 10 4 10 5 0
13 -4 16 -10z m2400 -17 c-3 -16 -12 -93 -20 -173 -25 -237 -18 -217 -81 -237
-29 -9 -55 -15 -57 -12 -2 2 2 51 9 108 11 81 20 114 42 149 49 79 52 87 52
123 0 26 6 41 23 52 31 23 37 21 32 -10z m-2646 -19 c22 -28 28 -88 12 -113
-7 -10 -11 -6 -15 16 -4 17 -20 43 -36 58 -28 27 -29 30 -13 47 21 24 28 23
52 -8z m252 6 c11 0 6 -22 -13 -73 -14 -37 -28 -17 -28 42 0 35 3 42 16 37 9
-3 20 -6 25 -6z m1754 -305 c8 -59 14 -109 12 -111 -8 -7 -112 34 -115 46 -1
9 15 25 38 38 40 23 40 23 40 84 0 34 2 59 5 57 2 -3 11 -54 20 -114z"/>
<path d="M2297 4404 c-14 -15 -6 -24 21 -24 15 0 33 -5 40 -12 16 -16 29 -1
16 20 -11 18 -64 28 -77 16z"/>
<path d="M2515 4390 c-19 -21 -13 -42 7 -22 7 7 27 12 45 12 25 0 31 4 27 15
-9 22 -58 18 -79 -5z"/>
<path d="M2322 4278 c3 -45 22 -62 33 -28 10 30 -2 70 -21 70 -12 0 -14 -10
-12 -42z"/>
<path d="M2528 4297 c-5 -27 7 -67 21 -67 12 0 23 47 16 71 -9 26 -32 24 -37
-4z"/>
<path d="M2158 4258 c9 -11 10 -18 2 -23 -16 -10 -12 -50 8 -68 24 -22 37 -9
15 15 -14 16 -15 23 -5 38 16 26 16 27 -10 41 -20 11 -22 11 -10 -3z"/>
<path d="M2410 4230 c-25 -48 -21 -84 11 -101 31 -16 36 -2 9 26 -23 25 -23
25 -5 65 25 54 12 63 -15 10z"/>
<path d="M2720 4245 c-7 -9 -9 -26 -5 -45 4 -20 2 -36 -6 -47 -12 -13 -11 -15
6 -11 17 3 20 12 20 61 1 31 0 57 -1 57 -1 0 -7 -7 -14 -15z"/>
<path d="M2523 4135 c7 -16 -30 -46 -78 -63 l-30 -10 36 -1 c25 -1 44 6 63 24
14 13 33 22 41 19 21 -8 19 2 -5 26 -24 24 -34 26 -27 5z"/>
<path d="M3449 4280 c-30 -24 -21 -25 25 -3 30 14 40 14 62 4 24 -11 26 -10
14 3 -18 22 -73 20 -101 -4z"/>
<path d="M3490 4205 c0 -24 5 -35 15 -35 10 0 15 11 15 35 0 24 -5 35 -15 35
-10 0 -15 -11 -15 -35z"/>
<path d="M3260 4187 c8 -22 7 -29 -5 -33 -17 -7 -21 -44 -5 -44 6 0 10 7 10
15 0 8 5 15 10 15 15 0 12 34 -5 56 -14 18 -14 17 -5 -9z"/>
<path d="M3461 4024 c25 -30 111 -62 94 -34 -3 6 -14 10 -23 10 -9 0 -28 9
-42 20 -30 24 -48 26 -29 4z"/>
<path d="M1476 4193 c-13 -13 -6 -63 9 -63 10 0 15 10 15 29 0 30 -12 46 -24
34z"/>
<path d="M1700 4148 c-27 -44 -25 -58 7 -58 25 0 26 0 8 -20 -25 -28 -12 -37
15 -10 25 25 22 42 -10 50 l-23 5 28 33 c21 25 23 32 11 32 -9 0 -25 -15 -36
-32z"/>
<path d="M1485 4008 c-10 -6 -33 -15 -50 -19 -28 -7 -28 -7 11 -8 28 -1 50 6
65 19 27 22 8 28 -26 8z"/>
<path d="M1480 3955 c-24 -14 -24 -14 -3 -15 12 0 25 5 28 11 11 17 2 18 -25
4z"/>
<path d="M3915 3415 c29 -77 38 -152 28 -230 -5 -44 -8 -82 -6 -85 8 -9 22 26
28 72 4 26 11 48 15 48 20 0 50 69 50 117 0 40 -5 54 -25 73 -22 21 -28 22
-51 11 -22 -10 -29 -9 -37 1 -6 9 -7 7 -2 -7z m98 -79 c0 -26 -7 -56 -18 -73
l-19 -28 -6 25 c-4 14 -10 42 -14 62 -6 33 -4 37 16 41 20 4 20 4 -4 6 -21 1
-28 6 -28 20 0 26 31 32 54 10 14 -13 19 -31 19 -63z"/>
<path d="M1910 3485 c-11 -13 -8 -15 25 -15 25 0 35 4 33 13 -7 18 -43 20 -58
2z"/>
<path d="M2040 3424 c0 -6 9 -37 20 -69 l20 -59 -22 -23 c-16 -18 -18 -23 -6
-23 20 0 48 32 48 56 -1 21 -59 136 -60 118z"/>
<path d="M1885 3390 c-21 -23 -16 -25 21 -8 23 11 28 10 45 -11 10 -12 24 -21
30 -19 18 6 -31 58 -55 58 -13 0 -31 -9 -41 -20z"/>
<path d="M1730 3385 c9 -11 10 -18 1 -29 -9 -11 -8 -18 4 -30 23 -22 42 -20
22 2 -12 14 -14 21 -6 29 15 15 4 43 -17 43 -13 0 -14 -3 -4 -15z"/>
<path d="M1960 3220 c6 -11 19 -24 30 -30 24 -13 87 -13 95 0 4 6 -8 10 -29
10 -38 0 -86 18 -86 32 0 4 -5 8 -10 8 -7 0 -7 -6 0 -20z"/>
<path d="M2718 3519 c-33 -19 -18 -29 42 -29 61 0 76 11 41 30 -25 13 -61 12
-83 -1z"/>
<path d="M2962 3518 c-22 -22 -13 -27 48 -27 43 1 60 4 60 14 0 25 -85 36
-108 13z"/>
<path d="M2744 3437 c-10 -27 0 -72 16 -72 21 0 25 58 6 74 -13 11 -17 11 -22
-2z"/>
<path d="M3000 3430 c-14 -26 -5 -73 13 -67 15 5 22 66 9 79 -7 7 -14 3 -22
-12z"/>
<path d="M2555 3410 c-3 -5 0 -10 8 -10 19 0 29 -24 15 -38 -16 -16 -5 -56 17
-61 16 -3 17 -1 7 12 -9 10 -11 28 -7 50 6 29 3 37 -13 46 -14 7 -23 8 -27 1z"/>
<path d="M3175 3398 c-8 -24 0 -98 10 -95 12 4 14 107 3 107 -5 0 -11 -6 -13
-12z"/>
<path d="M2840 3341 c-15 -38 1 -71 35 -71 31 0 42 18 13 22 -20 3 -23 9 -22
41 2 44 -9 48 -26 8z"/>
<path d="M2833 3206 c35 -32 93 -35 128 -7 33 27 17 37 -26 17 -27 -13 -43
-15 -63 -8 -68 25 -68 25 -39 -2z"/>
<path d="M3518 3429 c-33 -19 -21 -35 25 -34 30 1 41 6 39 16 -7 27 -35 35
-64 18z"/>
<path d="M3728 3429 c-33 -19 -21 -35 25 -34 30 1 41 6 39 16 -7 27 -35 35
-64 18z"/>
<path d="M3512 3313 c2 -21 8 -38 13 -38 6 0 11 17 13 38 3 29 0 37 -13 37
-13 0 -16 -8 -13 -37z"/>
<path d="M3603 3322 c0 -24 -9 -42 -33 -67 l-32 -33 25 -26 c14 -14 34 -26 44
-26 14 0 10 7 -15 26 l-32 26 30 34 c31 36 34 46 20 79 -6 16 -8 14 -7 -13z"/>
<path d="M3742 3313 c2 -21 8 -38 13 -38 6 0 11 17 13 38 3 29 0 37 -13 37
-13 0 -16 -8 -13 -37z"/>
<path d="M3661 3134 c-19 -9 -44 -13 -56 -10 -14 4 -28 0 -35 -8 -19 -24 21
-56 70 -56 46 0 94 37 88 68 -4 22 -25 24 -67 6z m40 -37 c-7 -7 -12 -5 -17 7
-4 11 -1 21 7 27 17 11 26 -18 10 -34z m-101 -2 c0 -8 -2 -15 -4 -15 -2 0 -6
7 -10 15 -3 8 -1 15 4 15 6 0 10 -7 10 -15z m34 -1 c4 -9 4 -19 2 -21 -8 -8
-26 8 -26 23 0 19 16 18 24 -2z m39 2 c6 -14 0 -26 -14 -26 -3 0 -9 9 -12 20
-6 23 18 28 26 6z"/>
<path d="M1253 3463 c-27 -10 -13 -33 20 -33 40 0 51 8 36 27 -12 13 -33 16
-56 6z"/>
<path d="M1440 3455 c-18 -21 -9 -27 36 -23 36 3 37 4 20 21 -21 21 -40 22
-56 2z"/>
<path d="M1060 3403 c0 -6 7 -16 15 -23 20 -17 19 -32 -2 -28 -24 4 -29 -29
-7 -53 9 -10 22 -19 27 -19 6 0 3 8 -6 18 -21 23 -22 42 -2 42 22 0 18 34 -5
55 -11 10 -20 13 -20 8z"/>
<path d="M1270 3360 c0 -16 5 -30 10 -30 6 0 10 14 10 30 0 17 -4 30 -10 30
-5 0 -10 -13 -10 -30z"/>
<path d="M1464 3376 c-7 -20 2 -46 16 -46 13 0 13 47 0 55 -6 3 -13 -1 -16 -9z"/>
<path d="M1405 3335 c20 -62 18 -74 -11 -86 -16 -6 -24 -13 -17 -16 7 -2 21 1
32 7 25 13 27 54 5 90 -11 18 -13 19 -9 5z"/>
<path d="M1270 3200 c12 -23 49 -40 86 -40 32 0 31 15 -2 17 -15 0 -39 10 -55
22 -35 26 -43 27 -29 1z"/>
<path d="M2283 2874 c-7 -3 -13 -12 -13 -20 0 -10 13 -14 46 -14 38 0 45 3 42
18 -3 17 -49 27 -75 16z"/>
<path d="M2541 2867 c-6 -8 -8 -17 -4 -20 9 -10 93 -9 93 1 0 30 -68 44 -89
19z"/>
<path d="M2300 2736 c0 -49 11 -64 30 -42 17 22 9 80 -12 84 -15 3 -18 -4 -18
-42z"/>
<path d="M2562 2733 c2 -35 7 -48 18 -48 11 0 16 13 18 48 3 42 1 47 -18 47
-19 0 -21 -5 -18 -47z"/>
<path d="M2410 2685 c-8 -24 -8 -40 -1 -53 12 -23 38 -35 54 -25 6 4 1 10 -13
15 -20 8 -22 13 -17 53 8 53 -7 60 -23 10z"/>
<path d="M2498 2568 c-43 -20 -49 -20 -92 -6 -48 16 -60 12 -27 -9 40 -25 88
-26 136 -3 25 12 45 26 45 31 0 12 -7 11 -62 -13z"/>
<path d="M2452 2493 c-36 -5 -34 -23 3 -23 32 0 56 10 49 21 -3 5 -8 8 -12 7
-4 0 -22 -3 -40 -5z"/>
<path d="M1408 2729 c-27 -15 -21 -30 7 -17 19 8 28 8 40 -2 20 -17 32 -5 15
15 -14 17 -37 19 -62 4z"/>
<path d="M1619 2720 c-27 -22 -19 -27 11 -8 16 10 24 10 40 1 11 -8 21 -9 25
-3 5 9 -25 30 -43 30 -5 0 -20 -9 -33 -20z"/>
<path d="M1425 2647 c-9 -22 -2 -62 10 -60 6 1 11 14 13 29 4 32 -14 56 -23
31z"/>
<path d="M1637 2640 c-6 -24 2 -60 13 -60 5 0 12 9 15 20 7 22 -2 60 -15 60
-4 0 -10 -9 -13 -20z"/>
<path d="M1515 2586 c-16 -29 -17 -37 -6 -50 13 -16 41 -22 41 -10 0 4 -7 12
-17 19 -15 11 -15 14 0 36 19 26 21 39 9 39 -5 0 -17 -15 -27 -34z"/>
<path d="M1528 2483 c6 -2 18 -2 25 0 6 3 1 5 -13 5 -14 0 -19 -2 -12 -5z"/>
<path d="M1555 2459 c-16 -5 -38 -6 -47 -3 -27 8 -21 -5 7 -16 26 -10 85 5 85
21 0 11 -5 10 -45 -2z"/>
<path d="M1510 2408 c0 -11 68 -10 74 1 3 5 -12 8 -34 7 -22 0 -40 -4 -40 -8z"/>
<path d="M2105 2750 c-3 -5 -2 -10 4 -10 19 0 34 -40 21 -55 -9 -11 -7 -21 11
-46 13 -18 25 -27 27 -21 2 6 -3 21 -12 34 -11 15 -12 25 -5 34 7 9 7 19 0 32
-15 29 -38 45 -46 32z"/>
<path d="M3207 2673 c-15 -14 -6 -23 24 -23 27 0 30 2 19 15 -13 16 -32 19
-43 8z"/>
<path d="M3447 2674 c-15 -15 -6 -24 24 -24 20 0 29 4 27 13 -5 14 -40 21 -51
11z"/>
<path d="M3330 2606 c-15 -40 -31 -152 -24 -170 7 -19 43 -41 52 -32 3 4 -3
12 -13 20 -16 11 -19 25 -17 73 1 33 7 75 12 93 12 41 5 53 -10 16z"/>
<path d="M3214 2586 c-9 -23 0 -79 14 -84 8 -2 12 11 12 47 0 48 -14 68 -26
37z"/>
<path d="M3460 2550 c0 -27 5 -50 10 -50 6 0 10 23 10 50 0 28 -4 50 -10 50
-5 0 -10 -22 -10 -50z"/>
<path d="M3325 2360 c-3 -5 3 -10 15 -10 12 0 18 5 15 10 -3 6 -10 10 -15 10
-5 0 -12 -4 -15 -10z"/>
<path d="M3386 2343 c-19 -10 -44 -14 -74 -10 -28 3 -39 1 -31 -4 22 -14 103
-10 125 5 28 21 14 27 -20 9z"/>
<path d="M3340 2280 l-25 -8 27 -1 c15 -1 30 4 33 9 7 11 0 11 -35 0z"/>
<path d="M2661 1911 c-14 -26 -1 -34 21 -14 16 14 23 15 38 5 30 -19 43 -15
30 8 -14 27 -75 28 -89 1z"/>
<path d="M2910 1910 c-11 -20 3 -30 15 -10 9 15 36 12 56 -6 22 -20 35 -1 13
20 -22 23 -71 20 -84 -4z"/>
<path d="M2684 1836 c-10 -27 5 -68 24 -64 24 5 24 71 -1 76 -9 2 -20 -4 -23
-12z"/>
<path d="M2940 1810 c0 -34 3 -41 18 -38 12 2 17 13 17 38 0 25 -5 36 -17 38
-15 3 -18 -4 -18 -38z"/>
<path d="M2810 1810 c-46 -46 -45 -116 2 -141 29 -16 34 -2 10 24 -28 29 -28
60 -1 103 23 38 19 44 -11 14z"/>
<path d="M2879 1618 c-34 -17 -40 -17 -78 -4 -29 10 -41 10 -38 3 5 -17 47
-37 77 -37 28 0 90 34 90 50 0 13 -7 11 -51 -12z"/>
<path d="M2158 1899 c-10 -5 -18 -17 -18 -25 0 -13 2 -13 21 0 16 11 28 12 47
5 32 -12 43 -2 18 17 -23 16 -44 17 -68 3z"/>
<path d="M2362 1818 c-14 -14 -16 -50 -3 -63 5 -6 11 -21 13 -35 l3 -25 14 23
c11 20 10 26 -3 41 -18 20 -21 51 -6 51 6 0 10 5 10 10 0 14 -13 13 -28 -2z"/>
<path d="M1956 1813 c-3 -3 -6 -24 -6 -45 0 -27 4 -38 15 -38 11 0 15 11 15
39 0 38 -10 57 -24 44z"/>
<path d="M2184 1806 c-9 -23 0 -69 14 -74 8 -2 12 9 12 37 0 41 -16 64 -26 37z"/>
<path d="M2060 1772 c0 -24 -7 -57 -16 -73 -14 -28 -14 -32 2 -50 21 -23 30
-18 15 9 -8 14 -7 24 4 38 16 22 19 82 5 104 -7 11 -10 3 -10 -28z"/>
<path d="M2106 1585 c-18 -14 -27 -14 -76 3 -12 4 -11 1 2 -13 28 -30 108 -18
108 16 0 13 -12 11 -34 -6z"/>
<path d="M2082 1532 c-26 -4 -20 -22 8 -22 20 0 36 16 23 22 -5 2 -18 2 -31 0z"/>
<path d="M3693 1890 c-13 -5 -23 -14 -23 -20 0 -13 17 -13 25 0 9 14 42 12 48
-2 2 -7 8 -10 12 -6 10 9 -13 38 -29 37 -6 0 -21 -4 -33 -9z"/>
<path d="M3452 1878 c-7 -7 -12 -16 -12 -22 0 -6 5 -5 12 2 17 17 38 15 60 -5
25 -22 36 -8 13 17 -20 22 -55 26 -73 8z"/>
<path d="M3465 1798 c-9 -23 -2 -83 10 -83 14 0 19 75 6 88 -7 7 -12 5 -16 -5z"/>
<path d="M3714 1785 c-8 -31 3 -78 16 -70 6 3 10 24 10 45 0 46 -17 62 -26 25z"/>
<path d="M3584 1720 c-6 -25 -14 -52 -18 -61 -8 -18 28 -69 40 -57 4 5 -1 17
-10 27 -14 16 -15 23 -6 41 6 11 10 37 8 57 l-3 37 -11 -44z"/>
<path d="M3512 1680 c-6 -11 -12 -22 -12 -25 0 -11 20 6 30 26 14 25 -2 25
-18 -1z"/>
<path d="M3666 1685 c7 -18 44 -40 44 -27 0 10 -33 42 -43 42 -3 0 -4 -7 -1
-15z"/>
<path d="M3550 1560 c-12 -7 -12 -12 -3 -21 17 -17 98 -16 118 1 16 13 16 15
-2 21 -26 11 -96 10 -113 -1z"/>
<path d="M3570 1493 c0 -10 45 -23 60 -18 33 10 23 20 -20 20 -22 0 -40 -1
-40 -2z"/>
<path d="M1248 1809 c-30 -17 -20 -29 22 -29 43 0 52 13 21 30 -23 12 -22 12
-43 -1z"/>
<path d="M1507 1813 c-19 -19 -5 -33 33 -33 41 0 49 7 28 28 -13 13 -50 16
-61 5z"/>
<path d="M1503 1738 c-13 -6 -23 -15 -23 -20 0 -11 7 -10 30 5 17 10 26 9 52
-6 38 -22 47 -16 19 12 -23 23 -44 25 -78 9z"/>
<path d="M1224 1718 c-19 -21 -19 -21 1 -13 38 15 63 17 69 6 4 -6 14 -11 22
-11 12 0 12 4 4 20 -15 28 -71 27 -96 -2z"/>
<path d="M1400 1697 c0 -15 -10 -31 -25 -41 -30 -20 -32 -37 -7 -59 26 -24 50
-23 29 1 -22 24 -21 28 3 52 21 21 26 55 10 65 -6 3 -10 -5 -10 -18z"/>
<path d="M1320 1513 c0 -27 44 -63 77 -63 31 0 79 25 87 45 14 37 7 40 -79 40
-81 0 -85 -1 -85 -22z m40 -9 c0 -8 -4 -12 -10 -9 -5 3 -10 10 -10 16 0 5 5 9
10 9 6 0 10 -7 10 -16z m110 7 c0 -6 -4 -13 -10 -16 -5 -3 -10 1 -10 9 0 9 5
16 10 16 6 0 10 -4 10 -9z m-80 -23 c0 -19 -2 -20 -10 -8 -13 19 -13 30 0 30
6 0 10 -10 10 -22z m40 1 c0 -11 -4 -17 -10 -14 -5 3 -10 13 -10 21 0 8 5 14
10 14 6 0 10 -9 10 -21z"/>
<path d="M2487 1823 c-4 -3 1 -12 10 -18 13 -10 15 -16 6 -27 -16 -19 5 -61
32 -67 19 -3 19 -2 3 15 -10 12 -14 29 -11 47 7 36 -20 70 -40 50z"/>
<path d="M1074 1678 c16 -13 17 -17 5 -36 -11 -18 -11 -24 5 -41 11 -12 26
-21 34 -21 12 0 10 6 -8 25 -13 14 -18 25 -11 25 8 0 11 11 9 28 -2 20 -9 28
-28 30 -24 3 -24 3 -6 -10z"/>
<path d="M1180 1392 c0 -1 4 -10 9 -20 5 -9 14 -28 20 -42 10 -24 11 -23 9 10
-1 19 1 40 5 47 4 7 -2 10 -18 9 -14 0 -25 -2 -25 -4z"/>
<path d="M1210 1210 c-6 -11 -16 -17 -22 -14 -8 5 -9 1 -5 -10 4 -10 7 -31 7
-47 0 -18 4 -28 10 -24 6 3 10 21 10 39 0 19 7 39 15 46 17 14 20 30 5 30 -5
0 -14 -9 -20 -20z"/>
<path d="M1247 1026 c-12 -10 -15 -16 -7 -21 6 -4 16 -19 22 -33 9 -22 12 -24
15 -9 3 10 0 24 -6 31 -6 8 -9 21 -5 30 7 19 5 20 -19 2z"/>
<path d="M1590 1375 c-7 -8 -17 -12 -23 -8 -6 4 -7 -4 -3 -23 11 -43 26 -54
26 -18 0 17 5 35 12 42 6 6 9 14 6 17 -3 3 -11 -1 -18 -10z"/>
<path d="M1580 1199 c0 -5 -4 -7 -10 -4 -16 10 -11 -8 11 -34 24 -29 28 -26
22 17 -5 29 -23 47 -23 21z"/>
<path d="M1582 1047 c-11 -13 -11 -20 0 -39 l13 -23 3 23 c2 12 2 30 0 39 -3
15 -4 15 -16 0z"/>
</g>
</svg>
